<mxfile host="Electron" modified="2023-07-14T20:07:03.597Z" agent="Mozilla/5.0 (Windows NT 10.0; Win64; x64) AppleWebKit/537.36 (KHTML, like Gecko) draw.io/21.6.1 Chrome/112.0.5615.204 Electron/24.6.1 Safari/537.36" etag="Q7jFlgPUQbF7CK4a-MzW" version="21.6.1" type="device" pages="3">
  <diagram name="Usecase" id="soYgZAD_qnOKSM2W1Pp1">
    <mxGraphModel dx="1182" dy="723" grid="1" gridSize="10" guides="1" tooltips="1" connect="1" arrows="1" fold="1" page="1" pageScale="1" pageWidth="1900" pageHeight="1920" math="0" shadow="0">
      <root>
        <mxCell id="0" />
        <mxCell id="1" parent="0" />
        <mxCell id="vgEwxyoYL3BPUIXT6Yd2-20" value="" style="group;movable=0;resizable=0;rotatable=0;deletable=0;editable=0;locked=1;connectable=0;" parent="1" vertex="1" connectable="0">
          <mxGeometry x="250" y="160" width="480" height="400" as="geometry" />
        </mxCell>
        <mxCell id="vgEwxyoYL3BPUIXT6Yd2-18" value="" style="rounded=0;whiteSpace=wrap;html=1;fillColor=#dae8fc;strokeColor=#6c8ebf;" parent="vgEwxyoYL3BPUIXT6Yd2-20" vertex="1">
          <mxGeometry width="480" height="400" as="geometry" />
        </mxCell>
        <mxCell id="vgEwxyoYL3BPUIXT6Yd2-19" value="&lt;b&gt;Esport Managemet System&lt;/b&gt;" style="text;html=1;strokeColor=none;fillColor=none;align=center;verticalAlign=middle;whiteSpace=wrap;rounded=0;" parent="vgEwxyoYL3BPUIXT6Yd2-20" vertex="1">
          <mxGeometry x="-89" y="-47" width="140" height="30" as="geometry" />
        </mxCell>
        <mxCell id="vgEwxyoYL3BPUIXT6Yd2-23" style="rounded=0;orthogonalLoop=1;jettySize=auto;html=1;exitX=0;exitY=0.3333333333333333;exitDx=0;exitDy=0;exitPerimeter=0;endArrow=diamondThin;endFill=1;edgeStyle=elbowEdgeStyle;fillColor=#e1d5e7;strokeColor=#9673a6;" parent="1" source="vgEwxyoYL3BPUIXT6Yd2-1" edge="1">
          <mxGeometry relative="1" as="geometry">
            <mxPoint x="130" y="260" as="targetPoint" />
            <Array as="points" />
          </mxGeometry>
        </mxCell>
        <mxCell id="vgEwxyoYL3BPUIXT6Yd2-54" style="edgeStyle=none;shape=connector;rounded=0;orthogonalLoop=1;jettySize=auto;html=1;entryX=0;entryY=0.5;entryDx=0;entryDy=0;labelBackgroundColor=default;strokeColor=default;fontFamily=Helvetica;fontSize=11;fontColor=default;endArrow=none;endFill=0;" parent="1" source="vgEwxyoYL3BPUIXT6Yd2-1" target="vgEwxyoYL3BPUIXT6Yd2-53" edge="1">
          <mxGeometry relative="1" as="geometry">
            <mxPoint x="210" y="340" as="sourcePoint" />
          </mxGeometry>
        </mxCell>
        <mxCell id="vgEwxyoYL3BPUIXT6Yd2-1" value="Admin&lt;br&gt;" style="shape=umlActor;verticalLabelPosition=bottom;verticalAlign=top;html=1;outlineConnect=0;fillColor=#e1d5e7;strokeColor=#9673a6;" parent="1" vertex="1">
          <mxGeometry x="170" y="300" width="30" height="60" as="geometry" />
        </mxCell>
        <mxCell id="vgEwxyoYL3BPUIXT6Yd2-24" style="rounded=0;orthogonalLoop=1;jettySize=auto;html=1;exitX=0;exitY=0.3333333333333333;exitDx=0;exitDy=0;exitPerimeter=0;endArrow=diamondThin;endFill=1;edgeStyle=elbowEdgeStyle;entryX=1;entryY=0.3333333333333333;entryDx=0;entryDy=0;entryPerimeter=0;fillColor=#e1d5e7;strokeColor=#9673a6;" parent="1" source="vgEwxyoYL3BPUIXT6Yd2-4" target="vgEwxyoYL3BPUIXT6Yd2-21" edge="1">
          <mxGeometry relative="1" as="geometry">
            <mxPoint x="160" y="110" as="targetPoint" />
          </mxGeometry>
        </mxCell>
        <mxCell id="vgEwxyoYL3BPUIXT6Yd2-44" style="shape=connector;rounded=0;orthogonalLoop=1;jettySize=auto;html=1;entryX=0;entryY=0.5;entryDx=0;entryDy=0;labelBackgroundColor=default;strokeColor=default;fontFamily=Helvetica;fontSize=11;fontColor=default;endArrow=none;endFill=0;" parent="1" source="vgEwxyoYL3BPUIXT6Yd2-4" target="vgEwxyoYL3BPUIXT6Yd2-43" edge="1">
          <mxGeometry relative="1" as="geometry" />
        </mxCell>
        <mxCell id="vgEwxyoYL3BPUIXT6Yd2-4" value="Manager" style="shape=umlActor;verticalLabelPosition=bottom;verticalAlign=top;html=1;outlineConnect=0;fillColor=#e1d5e7;strokeColor=#9673a6;" parent="1" vertex="1">
          <mxGeometry x="180" y="180" width="30" height="60" as="geometry" />
        </mxCell>
        <mxCell id="vgEwxyoYL3BPUIXT6Yd2-68" style="edgeStyle=none;shape=connector;rounded=0;orthogonalLoop=1;jettySize=auto;html=1;entryX=1;entryY=0.5;entryDx=0;entryDy=0;labelBackgroundColor=default;strokeColor=default;fontFamily=Helvetica;fontSize=11;fontColor=default;endArrow=none;endFill=0;" parent="1" source="vgEwxyoYL3BPUIXT6Yd2-6" target="vgEwxyoYL3BPUIXT6Yd2-67" edge="1">
          <mxGeometry relative="1" as="geometry" />
        </mxCell>
        <mxCell id="vgEwxyoYL3BPUIXT6Yd2-6" value="Finance" style="shape=umlActor;verticalLabelPosition=bottom;verticalAlign=top;html=1;outlineConnect=0;fillColor=#e1d5e7;strokeColor=#9673a6;" parent="1" vertex="1">
          <mxGeometry x="770" y="290" width="30" height="60" as="geometry" />
        </mxCell>
        <mxCell id="vgEwxyoYL3BPUIXT6Yd2-55" style="edgeStyle=none;shape=connector;rounded=0;orthogonalLoop=1;jettySize=auto;html=1;entryX=1;entryY=0.5;entryDx=0;entryDy=0;labelBackgroundColor=default;strokeColor=default;fontFamily=Helvetica;fontSize=11;fontColor=default;endArrow=none;endFill=0;" parent="1" source="vgEwxyoYL3BPUIXT6Yd2-9" target="vgEwxyoYL3BPUIXT6Yd2-53" edge="1">
          <mxGeometry relative="1" as="geometry" />
        </mxCell>
        <mxCell id="vgEwxyoYL3BPUIXT6Yd2-9" value="Oragnizer" style="shape=umlActor;verticalLabelPosition=bottom;verticalAlign=top;html=1;outlineConnect=0;fillColor=#e1d5e7;strokeColor=#9673a6;" parent="1" vertex="1">
          <mxGeometry x="770" y="440" width="30" height="60" as="geometry" />
        </mxCell>
        <mxCell id="vgEwxyoYL3BPUIXT6Yd2-61" style="edgeStyle=none;shape=connector;rounded=0;orthogonalLoop=1;jettySize=auto;html=1;entryX=0.5;entryY=1;entryDx=0;entryDy=0;labelBackgroundColor=default;strokeColor=default;fontFamily=Helvetica;fontSize=11;fontColor=default;endArrow=none;endFill=0;" parent="1" source="vgEwxyoYL3BPUIXT6Yd2-11" target="vgEwxyoYL3BPUIXT6Yd2-40" edge="1">
          <mxGeometry relative="1" as="geometry" />
        </mxCell>
        <mxCell id="vgEwxyoYL3BPUIXT6Yd2-11" value="Company" style="shape=umlActor;verticalLabelPosition=bottom;verticalAlign=top;html=1;outlineConnect=0;" parent="1" vertex="1">
          <mxGeometry x="480" y="570" width="30" height="60" as="geometry" />
        </mxCell>
        <mxCell id="vgEwxyoYL3BPUIXT6Yd2-52" style="edgeStyle=none;shape=connector;rounded=0;orthogonalLoop=1;jettySize=auto;html=1;entryX=0;entryY=0.5;entryDx=0;entryDy=0;labelBackgroundColor=default;strokeColor=default;fontFamily=Helvetica;fontSize=11;fontColor=default;endArrow=none;endFill=0;" parent="1" source="vgEwxyoYL3BPUIXT6Yd2-12" target="vgEwxyoYL3BPUIXT6Yd2-38" edge="1">
          <mxGeometry relative="1" as="geometry" />
        </mxCell>
        <mxCell id="vgEwxyoYL3BPUIXT6Yd2-12" value="Teams" style="shape=umlActor;verticalLabelPosition=bottom;verticalAlign=top;html=1;outlineConnect=0;fillColor=#e1d5e7;strokeColor=#9673a6;" parent="1" vertex="1">
          <mxGeometry x="160" y="440" width="30" height="60" as="geometry" />
        </mxCell>
        <mxCell id="vgEwxyoYL3BPUIXT6Yd2-33" style="edgeStyle=orthogonalEdgeStyle;shape=connector;rounded=0;orthogonalLoop=1;jettySize=auto;html=1;exitX=1;exitY=0.3333333333333333;exitDx=0;exitDy=0;exitPerimeter=0;entryX=0;entryY=0.3333333333333333;entryDx=0;entryDy=0;entryPerimeter=0;labelBackgroundColor=default;strokeColor=#9673a6;fontFamily=Helvetica;fontSize=11;fontColor=default;endArrow=diamondThin;endFill=1;fillColor=#e1d5e7;" parent="1" target="vgEwxyoYL3BPUIXT6Yd2-26" edge="1">
          <mxGeometry relative="1" as="geometry">
            <mxPoint x="365" y="80" as="sourcePoint" />
            <mxPoint x="492" y="-20" as="targetPoint" />
            <Array as="points">
              <mxPoint x="415" y="80" />
              <mxPoint x="415" y="50" />
              <mxPoint x="497" y="50" />
            </Array>
          </mxGeometry>
        </mxCell>
        <mxCell id="vgEwxyoYL3BPUIXT6Yd2-47" style="edgeStyle=none;shape=connector;rounded=0;orthogonalLoop=1;jettySize=auto;html=1;entryX=0.5;entryY=0;entryDx=0;entryDy=0;labelBackgroundColor=default;strokeColor=default;fontFamily=Helvetica;fontSize=11;fontColor=default;endArrow=none;endFill=0;" parent="1" source="vgEwxyoYL3BPUIXT6Yd2-15" target="vgEwxyoYL3BPUIXT6Yd2-41" edge="1">
          <mxGeometry relative="1" as="geometry" />
        </mxCell>
        <mxCell id="vgEwxyoYL3BPUIXT6Yd2-74" style="edgeStyle=none;shape=connector;rounded=0;orthogonalLoop=1;jettySize=auto;html=1;entryX=0;entryY=0.5;entryDx=0;entryDy=0;labelBackgroundColor=default;strokeColor=default;fontFamily=Helvetica;fontSize=11;fontColor=default;endArrow=none;endFill=0;" parent="1" source="vgEwxyoYL3BPUIXT6Yd2-15" target="vgEwxyoYL3BPUIXT6Yd2-71" edge="1">
          <mxGeometry relative="1" as="geometry" />
        </mxCell>
        <mxCell id="vgEwxyoYL3BPUIXT6Yd2-15" value="ContentCreator" style="shape=umlActor;verticalLabelPosition=bottom;verticalAlign=top;html=1;outlineConnect=0;fillColor=#e1d5e7;strokeColor=#9673a6;" parent="1" vertex="1">
          <mxGeometry x="340" y="60" width="30" height="60" as="geometry" />
        </mxCell>
        <mxCell id="vgEwxyoYL3BPUIXT6Yd2-32" style="edgeStyle=orthogonalEdgeStyle;shape=connector;rounded=0;orthogonalLoop=1;jettySize=auto;html=1;exitX=0;exitY=0.3333333333333333;exitDx=0;exitDy=0;exitPerimeter=0;entryX=1;entryY=0.3333333333333333;entryDx=0;entryDy=0;entryPerimeter=0;labelBackgroundColor=default;strokeColor=#9673a6;fontFamily=Helvetica;fontSize=11;fontColor=default;endArrow=diamondThin;endFill=1;fillColor=#e1d5e7;" parent="1" source="vgEwxyoYL3BPUIXT6Yd2-17" target="vgEwxyoYL3BPUIXT6Yd2-26" edge="1">
          <mxGeometry relative="1" as="geometry" />
        </mxCell>
        <mxCell id="vgEwxyoYL3BPUIXT6Yd2-72" style="edgeStyle=none;shape=connector;rounded=0;orthogonalLoop=1;jettySize=auto;html=1;entryX=0.5;entryY=0;entryDx=0;entryDy=0;labelBackgroundColor=default;strokeColor=default;fontFamily=Helvetica;fontSize=11;fontColor=default;endArrow=none;endFill=0;" parent="1" source="vgEwxyoYL3BPUIXT6Yd2-17" target="vgEwxyoYL3BPUIXT6Yd2-71" edge="1">
          <mxGeometry relative="1" as="geometry" />
        </mxCell>
        <mxCell id="vgEwxyoYL3BPUIXT6Yd2-17" value="SocialMediaManager" style="shape=umlActor;verticalLabelPosition=bottom;verticalAlign=top;html=1;outlineConnect=0;fillColor=#e1d5e7;strokeColor=#9673a6;" parent="1" vertex="1">
          <mxGeometry x="590" y="61" width="30" height="60" as="geometry" />
        </mxCell>
        <mxCell id="vgEwxyoYL3BPUIXT6Yd2-21" value="Stuff" style="shape=umlActor;verticalLabelPosition=bottom;verticalAlign=top;html=1;outlineConnect=0;fillColor=#e1d5e7;strokeColor=#9673a6;" parent="1" vertex="1">
          <mxGeometry x="90" y="240" width="30" height="60" as="geometry" />
        </mxCell>
        <mxCell id="vgEwxyoYL3BPUIXT6Yd2-46" style="edgeStyle=none;shape=connector;rounded=0;orthogonalLoop=1;jettySize=auto;html=1;exitX=1;exitY=0.3333333333333333;exitDx=0;exitDy=0;exitPerimeter=0;entryX=0;entryY=0.3333333333333333;entryDx=0;entryDy=0;entryPerimeter=0;labelBackgroundColor=default;strokeColor=#9673a6;fontFamily=Helvetica;fontSize=11;fontColor=default;endArrow=diamondThin;endFill=1;fillColor=#e1d5e7;" parent="1" source="vgEwxyoYL3BPUIXT6Yd2-25" target="vgEwxyoYL3BPUIXT6Yd2-26" edge="1">
          <mxGeometry relative="1" as="geometry" />
        </mxCell>
        <mxCell id="vgEwxyoYL3BPUIXT6Yd2-49" style="edgeStyle=none;shape=connector;rounded=0;orthogonalLoop=1;jettySize=auto;html=1;entryX=0.5;entryY=0;entryDx=0;entryDy=0;labelBackgroundColor=default;strokeColor=default;fontFamily=Helvetica;fontSize=11;fontColor=default;endArrow=none;endFill=0;" parent="1" source="vgEwxyoYL3BPUIXT6Yd2-25" target="vgEwxyoYL3BPUIXT6Yd2-37" edge="1">
          <mxGeometry relative="1" as="geometry" />
        </mxCell>
        <mxCell id="vgEwxyoYL3BPUIXT6Yd2-73" style="edgeStyle=none;shape=connector;rounded=0;orthogonalLoop=1;jettySize=auto;html=1;entryX=0;entryY=0;entryDx=0;entryDy=0;labelBackgroundColor=default;strokeColor=default;fontFamily=Helvetica;fontSize=11;fontColor=default;endArrow=none;endFill=0;" parent="1" source="vgEwxyoYL3BPUIXT6Yd2-25" target="vgEwxyoYL3BPUIXT6Yd2-71" edge="1">
          <mxGeometry relative="1" as="geometry" />
        </mxCell>
        <mxCell id="vgEwxyoYL3BPUIXT6Yd2-25" value="Player" style="shape=umlActor;verticalLabelPosition=bottom;verticalAlign=top;html=1;outlineConnect=0;fillColor=#e1d5e7;strokeColor=#9673a6;" parent="1" vertex="1">
          <mxGeometry x="435" y="60" width="30" height="60" as="geometry" />
        </mxCell>
        <mxCell id="vgEwxyoYL3BPUIXT6Yd2-26" value="User" style="shape=umlActor;verticalLabelPosition=bottom;verticalAlign=top;html=1;outlineConnect=0;fillColor=#e1d5e7;strokeColor=#9673a6;" parent="1" vertex="1">
          <mxGeometry x="497" y="61" width="30" height="60" as="geometry" />
        </mxCell>
        <mxCell id="vgEwxyoYL3BPUIXT6Yd2-37" value="Make Team" style="ellipse;whiteSpace=wrap;html=1;fontFamily=Helvetica;fontSize=11;fillColor=#d5e8d4;strokeColor=#82b366;" parent="1" vertex="1">
          <mxGeometry x="365" y="170" width="100" height="40" as="geometry" />
        </mxCell>
        <mxCell id="vgEwxyoYL3BPUIXT6Yd2-38" value="Perticipate Tournament" style="ellipse;whiteSpace=wrap;html=1;fontFamily=Helvetica;fontSize=11;fillColor=#d5e8d4;strokeColor=#82b366;" parent="1" vertex="1">
          <mxGeometry x="260" y="410" width="100" height="40" as="geometry" />
        </mxCell>
        <mxCell id="vgEwxyoYL3BPUIXT6Yd2-60" style="edgeStyle=none;shape=connector;rounded=0;orthogonalLoop=1;jettySize=auto;html=1;exitX=1;exitY=0.5;exitDx=0;exitDy=0;labelBackgroundColor=default;strokeColor=default;fontFamily=Helvetica;fontSize=11;fontColor=default;endArrow=none;endFill=0;" parent="1" source="vgEwxyoYL3BPUIXT6Yd2-39" target="vgEwxyoYL3BPUIXT6Yd2-9" edge="1">
          <mxGeometry relative="1" as="geometry">
            <mxPoint x="769.9999999999998" y="470" as="targetPoint" />
            <mxPoint x="597.0000000000034" y="440" as="sourcePoint" />
          </mxGeometry>
        </mxCell>
        <mxCell id="vgEwxyoYL3BPUIXT6Yd2-39" value="Accept Sponsor" style="ellipse;whiteSpace=wrap;html=1;fontFamily=Helvetica;fontSize=11;fillColor=#d5e8d4;strokeColor=#82b366;" parent="1" vertex="1">
          <mxGeometry x="497" y="410" width="100" height="40" as="geometry" />
        </mxCell>
        <mxCell id="vgEwxyoYL3BPUIXT6Yd2-40" value="make offer" style="ellipse;whiteSpace=wrap;html=1;fontFamily=Helvetica;fontSize=11;fillColor=#d5e8d4;strokeColor=#82b366;" parent="1" vertex="1">
          <mxGeometry x="445" y="480" width="100" height="40" as="geometry" />
        </mxCell>
        <mxCell id="vgEwxyoYL3BPUIXT6Yd2-64" style="edgeStyle=none;shape=connector;rounded=0;orthogonalLoop=1;jettySize=auto;html=1;exitX=1;exitY=0.5;exitDx=0;exitDy=0;labelBackgroundColor=default;strokeColor=default;fontFamily=Helvetica;fontSize=11;fontColor=default;endArrow=none;endFill=0;" parent="1" source="vgEwxyoYL3BPUIXT6Yd2-43" target="vgEwxyoYL3BPUIXT6Yd2-17" edge="1">
          <mxGeometry relative="1" as="geometry" />
        </mxCell>
        <mxCell id="vgEwxyoYL3BPUIXT6Yd2-43" value="manage Teams" style="ellipse;whiteSpace=wrap;html=1;fontFamily=Helvetica;fontSize=11;fillColor=#d5e8d4;strokeColor=#82b366;" parent="1" vertex="1">
          <mxGeometry x="403" y="286" width="100" height="40" as="geometry" />
        </mxCell>
        <mxCell id="vgEwxyoYL3BPUIXT6Yd2-41" value="Create Content" style="ellipse;whiteSpace=wrap;html=1;fontFamily=Helvetica;fontSize=11;fillColor=#d5e8d4;strokeColor=#82b366;" parent="1" vertex="1">
          <mxGeometry x="250" y="180" width="100" height="40" as="geometry" />
        </mxCell>
        <mxCell id="vgEwxyoYL3BPUIXT6Yd2-50" value="&amp;lt;&amp;lt;Include&amp;gt;&amp;gt;" style="endArrow=open;html=1;rounded=0;align=center;verticalAlign=bottom;dashed=1;endFill=0;labelBackgroundColor=none;strokeColor=default;fontFamily=Helvetica;fontSize=11;fontColor=default;shape=connector;entryX=0.5;entryY=1;entryDx=0;entryDy=0;" parent="1" source="vgEwxyoYL3BPUIXT6Yd2-43" target="vgEwxyoYL3BPUIXT6Yd2-37" edge="1">
          <mxGeometry x="-0.5" relative="1" as="geometry">
            <mxPoint x="410" y="310" as="sourcePoint" />
            <mxPoint x="570" y="310" as="targetPoint" />
            <mxPoint as="offset" />
          </mxGeometry>
        </mxCell>
        <mxCell id="vgEwxyoYL3BPUIXT6Yd2-53" value="Host Tournamnet" style="ellipse;whiteSpace=wrap;html=1;fontFamily=Helvetica;fontSize=11;fillColor=#f8cecc;strokeColor=#b85450;" parent="1" vertex="1">
          <mxGeometry x="420" y="330" width="100" height="40" as="geometry" />
        </mxCell>
        <mxCell id="vgEwxyoYL3BPUIXT6Yd2-56" value="&amp;lt;&amp;lt;Include&amp;gt;&amp;gt;" style="endArrow=open;html=1;rounded=0;align=center;verticalAlign=bottom;dashed=1;endFill=0;labelBackgroundColor=none;strokeColor=default;fontFamily=Helvetica;fontSize=11;fontColor=default;shape=connector;exitX=1;exitY=0.5;exitDx=0;exitDy=0;entryX=0.5;entryY=1;entryDx=0;entryDy=0;" parent="1" source="vgEwxyoYL3BPUIXT6Yd2-38" target="vgEwxyoYL3BPUIXT6Yd2-53" edge="1">
          <mxGeometry x="-0.0513" y="6" relative="1" as="geometry">
            <mxPoint x="430" y="470" as="sourcePoint" />
            <mxPoint x="510" y="400" as="targetPoint" />
            <mxPoint as="offset" />
          </mxGeometry>
        </mxCell>
        <mxCell id="vgEwxyoYL3BPUIXT6Yd2-58" value="&amp;lt;&amp;lt;Exclude&amp;gt;&amp;gt;" style="endArrow=open;html=1;rounded=0;align=center;verticalAlign=bottom;dashed=1;endFill=0;labelBackgroundColor=none;strokeColor=default;fontFamily=Helvetica;fontSize=11;fontColor=default;shape=connector;exitX=1;exitY=0.5;exitDx=0;exitDy=0;entryX=0;entryY=0.5;entryDx=0;entryDy=0;" parent="1" source="vgEwxyoYL3BPUIXT6Yd2-38" target="vgEwxyoYL3BPUIXT6Yd2-39" edge="1">
          <mxGeometry x="0.0557" y="-19" relative="1" as="geometry">
            <mxPoint x="370" y="460" as="sourcePoint" />
            <mxPoint x="470" y="410" as="targetPoint" />
            <mxPoint as="offset" />
          </mxGeometry>
        </mxCell>
        <mxCell id="vgEwxyoYL3BPUIXT6Yd2-63" value="&amp;lt;&amp;lt;Include&amp;gt;&amp;gt;" style="endArrow=open;html=1;rounded=0;align=center;verticalAlign=bottom;dashed=1;endFill=0;labelBackgroundColor=none;strokeColor=default;fontFamily=Helvetica;fontSize=11;fontColor=default;shape=connector;exitX=0.458;exitY=0.991;exitDx=0;exitDy=0;entryX=0.5;entryY=0;entryDx=0;entryDy=0;exitPerimeter=0;" parent="1" source="vgEwxyoYL3BPUIXT6Yd2-39" target="vgEwxyoYL3BPUIXT6Yd2-40" edge="1">
          <mxGeometry x="0.0093" relative="1" as="geometry">
            <mxPoint x="479.77" y="474" as="sourcePoint" />
            <mxPoint x="574.77" y="450" as="targetPoint" />
            <mxPoint as="offset" />
          </mxGeometry>
        </mxCell>
        <mxCell id="vgEwxyoYL3BPUIXT6Yd2-65" value="manage SocialMedia managers" style="ellipse;whiteSpace=wrap;html=1;fontFamily=Helvetica;fontSize=11;fillColor=#d5e8d4;strokeColor=#82b366;" parent="1" vertex="1">
          <mxGeometry x="260" y="280" width="100" height="40" as="geometry" />
        </mxCell>
        <mxCell id="vgEwxyoYL3BPUIXT6Yd2-66" value="&amp;lt;&amp;lt;Include&amp;gt;&amp;gt;" style="endArrow=open;html=1;rounded=0;align=center;verticalAlign=bottom;dashed=1;endFill=0;labelBackgroundColor=none;strokeColor=default;fontFamily=Helvetica;fontSize=11;fontColor=default;shape=connector;entryX=0.969;entryY=0.388;entryDx=0;entryDy=0;entryPerimeter=0;exitX=0;exitY=1;exitDx=0;exitDy=0;" parent="1" source="vgEwxyoYL3BPUIXT6Yd2-43" target="vgEwxyoYL3BPUIXT6Yd2-65" edge="1">
          <mxGeometry x="0.0535" y="16" relative="1" as="geometry">
            <mxPoint x="560" y="280" as="sourcePoint" />
            <mxPoint x="560" y="240" as="targetPoint" />
            <mxPoint as="offset" />
          </mxGeometry>
        </mxCell>
        <mxCell id="vgEwxyoYL3BPUIXT6Yd2-67" value="Handle Payment" style="ellipse;whiteSpace=wrap;html=1;fontFamily=Helvetica;fontSize=11;fillColor=#d5e8d4;strokeColor=#82b366;" parent="1" vertex="1">
          <mxGeometry x="610" y="310" width="100" height="40" as="geometry" />
        </mxCell>
        <mxCell id="vgEwxyoYL3BPUIXT6Yd2-69" value="&amp;lt;&amp;lt;Include&amp;gt;&amp;gt;" style="endArrow=open;html=1;rounded=0;align=center;verticalAlign=bottom;dashed=1;endFill=0;labelBackgroundColor=none;strokeColor=default;fontFamily=Helvetica;fontSize=11;fontColor=default;shape=connector;exitX=1;exitY=0;exitDx=0;exitDy=0;entryX=0;entryY=0.5;entryDx=0;entryDy=0;" parent="1" source="vgEwxyoYL3BPUIXT6Yd2-53" target="vgEwxyoYL3BPUIXT6Yd2-67" edge="1">
          <mxGeometry x="-0.0513" y="6" relative="1" as="geometry">
            <mxPoint x="520" y="330" as="sourcePoint" />
            <mxPoint x="670" y="300" as="targetPoint" />
            <mxPoint as="offset" />
          </mxGeometry>
        </mxCell>
        <mxCell id="vgEwxyoYL3BPUIXT6Yd2-70" value="&amp;lt;&amp;lt;Include&amp;gt;&amp;gt;" style="endArrow=open;html=1;rounded=0;align=center;verticalAlign=bottom;dashed=1;endFill=0;labelBackgroundColor=none;strokeColor=default;fontFamily=Helvetica;fontSize=11;fontColor=default;shape=connector;exitX=1;exitY=0;exitDx=0;exitDy=0;entryX=0;entryY=1;entryDx=0;entryDy=0;" parent="1" source="vgEwxyoYL3BPUIXT6Yd2-39" target="vgEwxyoYL3BPUIXT6Yd2-67" edge="1">
          <mxGeometry x="-0.0513" y="6" relative="1" as="geometry">
            <mxPoint x="569.77" y="368.1" as="sourcePoint" />
            <mxPoint x="654.77" y="292.1" as="targetPoint" />
            <mxPoint as="offset" />
          </mxGeometry>
        </mxCell>
        <mxCell id="vgEwxyoYL3BPUIXT6Yd2-71" value="receive salary" style="ellipse;whiteSpace=wrap;html=1;fontFamily=Helvetica;fontSize=11;fillColor=#d5e8d4;strokeColor=#82b366;" parent="1" vertex="1">
          <mxGeometry x="580" y="200" width="100" height="40" as="geometry" />
        </mxCell>
        <mxCell id="vgEwxyoYL3BPUIXT6Yd2-75" value="&amp;lt;&amp;lt;Include&amp;gt;&amp;gt;" style="endArrow=open;html=1;rounded=0;align=center;verticalAlign=bottom;dashed=1;endFill=0;labelBackgroundColor=none;strokeColor=default;fontFamily=Helvetica;fontSize=11;fontColor=default;shape=connector;exitX=0.5;exitY=1;exitDx=0;exitDy=0;entryX=0.5;entryY=0;entryDx=0;entryDy=0;" parent="1" source="vgEwxyoYL3BPUIXT6Yd2-71" target="vgEwxyoYL3BPUIXT6Yd2-67" edge="1">
          <mxGeometry x="-0.0513" y="6" relative="1" as="geometry">
            <mxPoint x="535" y="286" as="sourcePoint" />
            <mxPoint x="620" y="210" as="targetPoint" />
            <mxPoint as="offset" />
          </mxGeometry>
        </mxCell>
        <mxCell id="vgEwxyoYL3BPUIXT6Yd2-76" value="&amp;lt;&amp;lt;Include&amp;gt;&amp;gt;" style="endArrow=open;html=1;rounded=0;align=center;verticalAlign=bottom;dashed=1;endFill=0;labelBackgroundColor=none;strokeColor=default;fontFamily=Helvetica;fontSize=11;fontColor=default;shape=connector;exitX=1;exitY=1;exitDx=0;exitDy=0;entryX=0;entryY=0.5;entryDx=0;entryDy=0;" parent="1" source="vgEwxyoYL3BPUIXT6Yd2-41" target="vgEwxyoYL3BPUIXT6Yd2-34" edge="1">
          <mxGeometry x="-0.2423" y="-16" relative="1" as="geometry">
            <mxPoint x="850" y="290" as="sourcePoint" />
            <mxPoint x="840" y="330" as="targetPoint" />
            <mxPoint as="offset" />
          </mxGeometry>
        </mxCell>
        <mxCell id="vgEwxyoYL3BPUIXT6Yd2-77" value="&amp;lt;&amp;lt;Include&amp;gt;&amp;gt;" style="endArrow=open;html=1;rounded=0;align=center;verticalAlign=bottom;dashed=1;endFill=0;labelBackgroundColor=none;strokeColor=default;fontFamily=Helvetica;fontSize=11;fontColor=default;shape=connector;exitX=1;exitY=1;exitDx=0;exitDy=0;entryX=0;entryY=0.5;entryDx=0;entryDy=0;" parent="1" source="vgEwxyoYL3BPUIXT6Yd2-37" target="vgEwxyoYL3BPUIXT6Yd2-34" edge="1">
          <mxGeometry x="0.4562" y="14" relative="1" as="geometry">
            <mxPoint x="850" y="300" as="sourcePoint" />
            <mxPoint x="840" y="340" as="targetPoint" />
            <mxPoint as="offset" />
          </mxGeometry>
        </mxCell>
        <mxCell id="vgEwxyoYL3BPUIXT6Yd2-79" value="&amp;lt;&amp;lt;Include&amp;gt;&amp;gt;" style="endArrow=open;html=1;rounded=0;align=center;verticalAlign=bottom;dashed=1;endFill=0;labelBackgroundColor=none;strokeColor=default;fontFamily=Helvetica;fontSize=11;fontColor=default;shape=connector;exitX=1;exitY=0;exitDx=0;exitDy=0;entryX=0.5;entryY=1;entryDx=0;entryDy=0;" parent="1" source="vgEwxyoYL3BPUIXT6Yd2-43" target="vgEwxyoYL3BPUIXT6Yd2-34" edge="1">
          <mxGeometry x="-0.6867" y="1" relative="1" as="geometry">
            <mxPoint x="493.38" y="254" as="sourcePoint" />
            <mxPoint x="530.38" y="290" as="targetPoint" />
            <mxPoint as="offset" />
          </mxGeometry>
        </mxCell>
        <mxCell id="vgEwxyoYL3BPUIXT6Yd2-80" value="&amp;lt;&amp;lt;Include&amp;gt;&amp;gt;" style="endArrow=open;html=1;rounded=0;align=center;verticalAlign=bottom;dashed=1;endFill=0;labelBackgroundColor=none;strokeColor=default;fontFamily=Helvetica;fontSize=11;fontColor=default;shape=connector;exitX=0;exitY=1;exitDx=0;exitDy=0;entryX=1;entryY=0.5;entryDx=0;entryDy=0;" parent="1" source="vgEwxyoYL3BPUIXT6Yd2-71" target="vgEwxyoYL3BPUIXT6Yd2-34" edge="1">
          <mxGeometry x="-0.0621" y="23" relative="1" as="geometry">
            <mxPoint x="569.77" y="286" as="sourcePoint" />
            <mxPoint x="576.77" y="250" as="targetPoint" />
            <mxPoint as="offset" />
          </mxGeometry>
        </mxCell>
        <mxCell id="vgEwxyoYL3BPUIXT6Yd2-34" value="Login" style="ellipse;whiteSpace=wrap;html=1;fontFamily=Helvetica;fontSize=11;fillColor=#d5e8d4;strokeColor=#82b366;" parent="1" vertex="1">
          <mxGeometry x="487" y="230" width="50" height="20" as="geometry" />
        </mxCell>
      </root>
    </mxGraphModel>
  </diagram>
  <diagram id="LCm5-VEPI5EHvVQU6VOL" name="Activity-Host">
    <mxGraphModel dx="1182" dy="723" grid="1" gridSize="10" guides="1" tooltips="1" connect="1" arrows="1" fold="1" page="1" pageScale="1" pageWidth="1900" pageHeight="1920" math="0" shadow="0">
      <root>
        <mxCell id="0" />
        <mxCell id="1" parent="0" />
        <mxCell id="Xey0vtTrbjJEbhx51ovU-10" value="Activity-Host-Tournament" style="swimlane;html=1;childLayout=stackLayout;resizeParent=1;resizeParentMax=0;startSize=20;whiteSpace=wrap;fontFamily=Helvetica;fontSize=11;fontColor=default;" parent="1" vertex="1">
          <mxGeometry x="460" y="320" width="870" height="660" as="geometry" />
        </mxCell>
        <mxCell id="Xey0vtTrbjJEbhx51ovU-11" value="Player" style="swimlane;html=1;startSize=20;fontFamily=Helvetica;fontSize=11;fontColor=default;" parent="Xey0vtTrbjJEbhx51ovU-10" vertex="1">
          <mxGeometry y="20" width="280" height="640" as="geometry" />
        </mxCell>
        <mxCell id="Xey0vtTrbjJEbhx51ovU-19" value="" style="edgeStyle=none;shape=connector;rounded=0;orthogonalLoop=1;jettySize=auto;html=1;labelBackgroundColor=default;strokeColor=default;fontFamily=Helvetica;fontSize=11;fontColor=default;endArrow=classic;endFill=1;" parent="Xey0vtTrbjJEbhx51ovU-11" source="Xey0vtTrbjJEbhx51ovU-17" target="Xey0vtTrbjJEbhx51ovU-18" edge="1">
          <mxGeometry relative="1" as="geometry" />
        </mxCell>
        <mxCell id="Xey0vtTrbjJEbhx51ovU-17" value="" style="ellipse;fillColor=strokeColor;html=1;fontFamily=Helvetica;fontSize=11;fontColor=default;" parent="Xey0vtTrbjJEbhx51ovU-11" vertex="1">
          <mxGeometry x="52.5" y="30" width="20" height="20" as="geometry" />
        </mxCell>
        <mxCell id="Xey0vtTrbjJEbhx51ovU-23" style="edgeStyle=orthogonalEdgeStyle;shape=connector;rounded=0;orthogonalLoop=1;jettySize=auto;html=1;exitX=1;exitY=0.5;exitDx=0;exitDy=0;entryX=0.5;entryY=0;entryDx=0;entryDy=0;labelBackgroundColor=default;strokeColor=default;fontFamily=Helvetica;fontSize=11;fontColor=default;endArrow=classic;endFill=1;" parent="Xey0vtTrbjJEbhx51ovU-11" source="Xey0vtTrbjJEbhx51ovU-18" target="Xey0vtTrbjJEbhx51ovU-21" edge="1">
          <mxGeometry relative="1" as="geometry">
            <Array as="points">
              <mxPoint x="175" y="85" />
              <mxPoint x="175" y="100" />
              <mxPoint x="125" y="100" />
            </Array>
          </mxGeometry>
        </mxCell>
        <mxCell id="Xey0vtTrbjJEbhx51ovU-24" value="No Account" style="edgeLabel;html=1;align=center;verticalAlign=middle;resizable=0;points=[];fontSize=11;fontFamily=Helvetica;fontColor=default;" parent="Xey0vtTrbjJEbhx51ovU-23" vertex="1" connectable="0">
          <mxGeometry x="-0.2786" relative="1" as="geometry">
            <mxPoint as="offset" />
          </mxGeometry>
        </mxCell>
        <mxCell id="Xey0vtTrbjJEbhx51ovU-18" value="Login" style="html=1;align=center;verticalAlign=top;rounded=1;absoluteArcSize=1;arcSize=10;dashed=0;whiteSpace=wrap;fontFamily=Helvetica;fontSize=11;fillColor=#dae8fc;strokeColor=#6c8ebf;" parent="Xey0vtTrbjJEbhx51ovU-11" vertex="1">
          <mxGeometry x="15" y="70" width="95" height="30" as="geometry" />
        </mxCell>
        <mxCell id="Xey0vtTrbjJEbhx51ovU-20" value="Looking For Team" style="html=1;align=center;verticalAlign=top;rounded=1;absoluteArcSize=1;arcSize=10;dashed=0;whiteSpace=wrap;fontFamily=Helvetica;fontSize=11;fillColor=#dae8fc;strokeColor=#6c8ebf;" parent="Xey0vtTrbjJEbhx51ovU-11" vertex="1">
          <mxGeometry x="15" y="160" width="85" height="40" as="geometry" />
        </mxCell>
        <mxCell id="Xey0vtTrbjJEbhx51ovU-40" style="edgeStyle=orthogonalEdgeStyle;shape=connector;rounded=0;orthogonalLoop=1;jettySize=auto;html=1;exitX=0;exitY=0.5;exitDx=0;exitDy=0;entryX=0.5;entryY=0;entryDx=0;entryDy=0;labelBackgroundColor=default;strokeColor=default;fontFamily=Helvetica;fontSize=11;fontColor=default;endArrow=classic;endFill=1;" parent="Xey0vtTrbjJEbhx51ovU-11" source="Xey0vtTrbjJEbhx51ovU-21" target="Xey0vtTrbjJEbhx51ovU-20" edge="1">
          <mxGeometry relative="1" as="geometry" />
        </mxCell>
        <mxCell id="Xey0vtTrbjJEbhx51ovU-41" style="edgeStyle=orthogonalEdgeStyle;shape=connector;rounded=0;orthogonalLoop=1;jettySize=auto;html=1;exitX=1;exitY=0.5;exitDx=0;exitDy=0;entryX=0.5;entryY=1;entryDx=0;entryDy=0;labelBackgroundColor=default;strokeColor=default;fontFamily=Helvetica;fontSize=11;fontColor=default;endArrow=classic;endFill=1;" parent="Xey0vtTrbjJEbhx51ovU-11" source="Xey0vtTrbjJEbhx51ovU-21" target="Xey0vtTrbjJEbhx51ovU-37" edge="1">
          <mxGeometry relative="1" as="geometry" />
        </mxCell>
        <mxCell id="Xey0vtTrbjJEbhx51ovU-21" value="" style="rhombus;fontFamily=Helvetica;fontSize=11;fillColor=#ffe6cc;strokeColor=#d79b00;" parent="Xey0vtTrbjJEbhx51ovU-11" vertex="1">
          <mxGeometry x="110" y="115" width="30" height="30" as="geometry" />
        </mxCell>
        <mxCell id="Xey0vtTrbjJEbhx51ovU-39" style="edgeStyle=orthogonalEdgeStyle;shape=connector;rounded=0;orthogonalLoop=1;jettySize=auto;html=1;entryX=0.75;entryY=0;entryDx=0;entryDy=0;labelBackgroundColor=default;strokeColor=default;fontFamily=Helvetica;fontSize=11;fontColor=default;endArrow=classic;endFill=1;exitX=0.5;exitY=0;exitDx=0;exitDy=0;" parent="Xey0vtTrbjJEbhx51ovU-11" source="Xey0vtTrbjJEbhx51ovU-37" target="Xey0vtTrbjJEbhx51ovU-18" edge="1">
          <mxGeometry relative="1" as="geometry" />
        </mxCell>
        <mxCell id="Xey0vtTrbjJEbhx51ovU-37" value="Register" style="html=1;align=center;verticalAlign=top;rounded=1;absoluteArcSize=1;arcSize=10;dashed=0;whiteSpace=wrap;fontFamily=Helvetica;fontSize=11;fillColor=#dae8fc;strokeColor=#6c8ebf;" parent="Xey0vtTrbjJEbhx51ovU-11" vertex="1">
          <mxGeometry x="195" y="80" width="75" height="30" as="geometry" />
        </mxCell>
        <mxCell id="Xey0vtTrbjJEbhx51ovU-50" value="Preaper for&lt;br&gt;Tournament" style="html=1;align=center;verticalAlign=top;rounded=1;absoluteArcSize=1;arcSize=10;dashed=0;whiteSpace=wrap;fontFamily=Helvetica;fontSize=11;fillColor=#dae8fc;strokeColor=#6c8ebf;" parent="Xey0vtTrbjJEbhx51ovU-11" vertex="1">
          <mxGeometry x="25" y="338.5" width="85" height="40" as="geometry" />
        </mxCell>
        <mxCell id="Xey0vtTrbjJEbhx51ovU-12" value="Team" style="swimlane;html=1;startSize=20;fontFamily=Helvetica;fontSize=11;fontColor=default;" parent="Xey0vtTrbjJEbhx51ovU-10" vertex="1">
          <mxGeometry x="280" y="20" width="260" height="640" as="geometry" />
        </mxCell>
        <mxCell id="Xey0vtTrbjJEbhx51ovU-63" style="edgeStyle=orthogonalEdgeStyle;shape=connector;rounded=0;orthogonalLoop=1;jettySize=auto;html=1;exitX=0.5;exitY=1;exitDx=0;exitDy=0;entryX=-0.043;entryY=0.483;entryDx=0;entryDy=0;entryPerimeter=0;labelBackgroundColor=default;strokeColor=default;fontFamily=Helvetica;fontSize=11;fontColor=default;endArrow=classic;endFill=1;" parent="Xey0vtTrbjJEbhx51ovU-12" source="Xey0vtTrbjJEbhx51ovU-42" target="Xey0vtTrbjJEbhx51ovU-60" edge="1">
          <mxGeometry relative="1" as="geometry" />
        </mxCell>
        <mxCell id="Xey0vtTrbjJEbhx51ovU-42" value="Accepted By a Team" style="html=1;align=center;verticalAlign=top;rounded=1;absoluteArcSize=1;arcSize=10;dashed=0;whiteSpace=wrap;fontFamily=Helvetica;fontSize=11;fillColor=#dae8fc;strokeColor=#6c8ebf;" parent="Xey0vtTrbjJEbhx51ovU-12" vertex="1">
          <mxGeometry x="90" y="160" width="102.5" height="32" as="geometry" />
        </mxCell>
        <mxCell id="Xey0vtTrbjJEbhx51ovU-72" style="edgeStyle=orthogonalEdgeStyle;shape=connector;rounded=0;orthogonalLoop=1;jettySize=auto;html=1;exitX=0.5;exitY=1;exitDx=0;exitDy=0;entryX=-0.483;entryY=0.06;entryDx=0;entryDy=0;entryPerimeter=0;labelBackgroundColor=default;strokeColor=default;fontFamily=Helvetica;fontSize=11;fontColor=default;endArrow=classic;endFill=1;" parent="Xey0vtTrbjJEbhx51ovU-12" source="Xey0vtTrbjJEbhx51ovU-44" target="Xey0vtTrbjJEbhx51ovU-68" edge="1">
          <mxGeometry relative="1" as="geometry" />
        </mxCell>
        <mxCell id="Xey0vtTrbjJEbhx51ovU-44" value="Look For&amp;nbsp;&lt;br style=&quot;border-color: var(--border-color);&quot;&gt;Sponsor" style="html=1;align=center;verticalAlign=top;rounded=1;absoluteArcSize=1;arcSize=10;dashed=0;whiteSpace=wrap;fontFamily=Helvetica;fontSize=11;fillColor=#dae8fc;strokeColor=#6c8ebf;" parent="Xey0vtTrbjJEbhx51ovU-12" vertex="1">
          <mxGeometry x="142.5" y="270" width="102.5" height="40" as="geometry" />
        </mxCell>
        <mxCell id="Xey0vtTrbjJEbhx51ovU-64" style="edgeStyle=orthogonalEdgeStyle;shape=connector;rounded=0;orthogonalLoop=1;jettySize=auto;html=1;entryX=0.5;entryY=0;entryDx=0;entryDy=0;labelBackgroundColor=default;strokeColor=default;fontFamily=Helvetica;fontSize=11;fontColor=default;endArrow=classic;endFill=1;" parent="Xey0vtTrbjJEbhx51ovU-12" source="Xey0vtTrbjJEbhx51ovU-60" target="Xey0vtTrbjJEbhx51ovU-44" edge="1">
          <mxGeometry relative="1" as="geometry" />
        </mxCell>
        <mxCell id="Xey0vtTrbjJEbhx51ovU-66" style="edgeStyle=orthogonalEdgeStyle;shape=connector;rounded=0;orthogonalLoop=1;jettySize=auto;html=1;entryX=0.5;entryY=0;entryDx=0;entryDy=0;labelBackgroundColor=default;strokeColor=default;fontFamily=Helvetica;fontSize=11;fontColor=default;endArrow=classic;endFill=1;" parent="Xey0vtTrbjJEbhx51ovU-12" source="Xey0vtTrbjJEbhx51ovU-60" target="Xey0vtTrbjJEbhx51ovU-65" edge="1">
          <mxGeometry relative="1" as="geometry" />
        </mxCell>
        <mxCell id="Xey0vtTrbjJEbhx51ovU-60" value="" style="html=1;points=[];perimeter=orthogonalPerimeter;fillColor=strokeColor;fontFamily=Helvetica;fontSize=11;fontColor=default;rotation=90;" parent="Xey0vtTrbjJEbhx51ovU-12" vertex="1">
          <mxGeometry x="137.5" y="147.5" width="5" height="145" as="geometry" />
        </mxCell>
        <mxCell id="Xey0vtTrbjJEbhx51ovU-70" style="edgeStyle=orthogonalEdgeStyle;shape=connector;rounded=0;orthogonalLoop=1;jettySize=auto;html=1;exitX=0.5;exitY=1;exitDx=0;exitDy=0;entryX=-0.621;entryY=0.921;entryDx=0;entryDy=0;entryPerimeter=0;labelBackgroundColor=default;strokeColor=default;fontFamily=Helvetica;fontSize=11;fontColor=default;endArrow=classic;endFill=1;" parent="Xey0vtTrbjJEbhx51ovU-12" source="Xey0vtTrbjJEbhx51ovU-65" target="Xey0vtTrbjJEbhx51ovU-68" edge="1">
          <mxGeometry relative="1" as="geometry" />
        </mxCell>
        <mxCell id="Xey0vtTrbjJEbhx51ovU-65" value="Sign Up for Tournament" style="html=1;align=center;verticalAlign=top;rounded=1;absoluteArcSize=1;arcSize=10;dashed=0;whiteSpace=wrap;fontFamily=Helvetica;fontSize=11;fillColor=#dae8fc;strokeColor=#6c8ebf;" parent="Xey0vtTrbjJEbhx51ovU-12" vertex="1">
          <mxGeometry x="20" y="270" width="102.5" height="40" as="geometry" />
        </mxCell>
        <mxCell id="Xey0vtTrbjJEbhx51ovU-68" value="" style="html=1;points=[];perimeter=orthogonalPerimeter;fillColor=strokeColor;fontFamily=Helvetica;fontSize=11;fontColor=default;rotation=90;" parent="Xey0vtTrbjJEbhx51ovU-12" vertex="1">
          <mxGeometry x="127.5" y="270" width="5" height="145" as="geometry" />
        </mxCell>
        <mxCell id="Xey0vtTrbjJEbhx51ovU-83" style="edgeStyle=orthogonalEdgeStyle;shape=connector;rounded=0;orthogonalLoop=1;jettySize=auto;html=1;exitX=0.5;exitY=1;exitDx=0;exitDy=0;entryX=0.5;entryY=0;entryDx=0;entryDy=0;labelBackgroundColor=default;strokeColor=default;fontFamily=Helvetica;fontSize=11;fontColor=default;endArrow=classic;endFill=1;" parent="Xey0vtTrbjJEbhx51ovU-12" source="Xey0vtTrbjJEbhx51ovU-77" target="Xey0vtTrbjJEbhx51ovU-82" edge="1">
          <mxGeometry relative="1" as="geometry" />
        </mxCell>
        <mxCell id="Xey0vtTrbjJEbhx51ovU-77" value="Perticipate" style="html=1;align=center;verticalAlign=top;rounded=1;absoluteArcSize=1;arcSize=10;dashed=0;whiteSpace=wrap;fontFamily=Helvetica;fontSize=11;fillColor=#dae8fc;strokeColor=#6c8ebf;" parent="Xey0vtTrbjJEbhx51ovU-12" vertex="1">
          <mxGeometry x="78.75" y="370" width="102.5" height="30" as="geometry" />
        </mxCell>
        <mxCell id="Xey0vtTrbjJEbhx51ovU-94" style="edgeStyle=orthogonalEdgeStyle;shape=connector;rounded=0;orthogonalLoop=1;jettySize=auto;html=1;entryX=0.5;entryY=0;entryDx=0;entryDy=0;labelBackgroundColor=default;strokeColor=default;fontFamily=Helvetica;fontSize=11;fontColor=default;endArrow=classic;endFill=1;" parent="Xey0vtTrbjJEbhx51ovU-12" source="Xey0vtTrbjJEbhx51ovU-82" target="Xey0vtTrbjJEbhx51ovU-93" edge="1">
          <mxGeometry relative="1" as="geometry" />
        </mxCell>
        <mxCell id="Xey0vtTrbjJEbhx51ovU-95" value="LOSE" style="edgeLabel;html=1;align=center;verticalAlign=middle;resizable=0;points=[];fontSize=11;fontFamily=Helvetica;fontColor=default;" parent="Xey0vtTrbjJEbhx51ovU-94" vertex="1" connectable="0">
          <mxGeometry x="0.4243" relative="1" as="geometry">
            <mxPoint y="-6" as="offset" />
          </mxGeometry>
        </mxCell>
        <mxCell id="Xey0vtTrbjJEbhx51ovU-82" value="" style="rhombus;fontFamily=Helvetica;fontSize=11;fillColor=#ffe6cc;strokeColor=#d79b00;" parent="Xey0vtTrbjJEbhx51ovU-12" vertex="1">
          <mxGeometry x="115" y="435" width="30" height="30" as="geometry" />
        </mxCell>
        <mxCell id="Xey0vtTrbjJEbhx51ovU-93" value="Runner Up" style="html=1;align=center;verticalAlign=top;rounded=1;absoluteArcSize=1;arcSize=10;dashed=0;whiteSpace=wrap;fontFamily=Helvetica;fontSize=11;fillColor=#dae8fc;strokeColor=#6c8ebf;" parent="Xey0vtTrbjJEbhx51ovU-12" vertex="1">
          <mxGeometry x="78.75" y="499" width="102.5" height="30" as="geometry" />
        </mxCell>
        <mxCell id="Xey0vtTrbjJEbhx51ovU-13" value="Oranizer" style="swimlane;html=1;startSize=20;fontFamily=Helvetica;fontSize=11;fontColor=default;" parent="Xey0vtTrbjJEbhx51ovU-10" vertex="1">
          <mxGeometry x="540" y="20" width="190" height="640" as="geometry" />
        </mxCell>
        <mxCell id="Xey0vtTrbjJEbhx51ovU-48" value="Host Tournament" style="html=1;align=center;verticalAlign=top;rounded=1;absoluteArcSize=1;arcSize=10;dashed=0;whiteSpace=wrap;fontFamily=Helvetica;fontSize=11;fillColor=#dae8fc;strokeColor=#6c8ebf;" parent="Xey0vtTrbjJEbhx51ovU-13" vertex="1">
          <mxGeometry x="43.75" y="310" width="102.5" height="30" as="geometry" />
        </mxCell>
        <mxCell id="Xey0vtTrbjJEbhx51ovU-92" style="edgeStyle=orthogonalEdgeStyle;shape=connector;rounded=0;orthogonalLoop=1;jettySize=auto;html=1;labelBackgroundColor=default;strokeColor=default;fontFamily=Helvetica;fontSize=11;fontColor=default;endArrow=classic;endFill=1;entryX=-0.603;entryY=0.398;entryDx=0;entryDy=0;entryPerimeter=0;" parent="Xey0vtTrbjJEbhx51ovU-13" source="Xey0vtTrbjJEbhx51ovU-85" target="Xey0vtTrbjJEbhx51ovU-99" edge="1">
          <mxGeometry relative="1" as="geometry">
            <mxPoint x="101" y="540" as="targetPoint" />
          </mxGeometry>
        </mxCell>
        <mxCell id="Xey0vtTrbjJEbhx51ovU-85" value="Receive Winner&amp;nbsp;&lt;br&gt;&amp;nbsp;Price" style="html=1;align=center;verticalAlign=top;rounded=1;absoluteArcSize=1;arcSize=10;dashed=0;whiteSpace=wrap;fontFamily=Helvetica;fontSize=11;fillColor=#dae8fc;strokeColor=#6c8ebf;" parent="Xey0vtTrbjJEbhx51ovU-13" vertex="1">
          <mxGeometry x="50" y="430" width="102.5" height="40" as="geometry" />
        </mxCell>
        <mxCell id="Xey0vtTrbjJEbhx51ovU-101" style="edgeStyle=orthogonalEdgeStyle;shape=connector;rounded=0;orthogonalLoop=1;jettySize=auto;html=1;entryX=0.5;entryY=0;entryDx=0;entryDy=0;labelBackgroundColor=default;strokeColor=default;fontFamily=Helvetica;fontSize=11;fontColor=default;endArrow=classic;endFill=1;" parent="Xey0vtTrbjJEbhx51ovU-13" source="Xey0vtTrbjJEbhx51ovU-99" target="Xey0vtTrbjJEbhx51ovU-100" edge="1">
          <mxGeometry relative="1" as="geometry" />
        </mxCell>
        <mxCell id="Xey0vtTrbjJEbhx51ovU-99" value="" style="html=1;points=[];perimeter=orthogonalPerimeter;fillColor=strokeColor;fontFamily=Helvetica;fontSize=11;fontColor=default;rotation=90;" parent="Xey0vtTrbjJEbhx51ovU-13" vertex="1">
          <mxGeometry x="90" y="510" width="5" height="80" as="geometry" />
        </mxCell>
        <mxCell id="Xey0vtTrbjJEbhx51ovU-100" value="" style="ellipse;html=1;shape=endState;fillColor=strokeColor;fontFamily=Helvetica;fontSize=11;fontColor=default;" parent="Xey0vtTrbjJEbhx51ovU-13" vertex="1">
          <mxGeometry x="78" y="572" width="30" height="30" as="geometry" />
        </mxCell>
        <mxCell id="Xey0vtTrbjJEbhx51ovU-15" value="Company" style="swimlane;startSize=20;whiteSpace=wrap;html=1;fontFamily=Helvetica;fontSize=11;fontColor=default;" parent="Xey0vtTrbjJEbhx51ovU-10" vertex="1">
          <mxGeometry x="730" y="20" width="140" height="640" as="geometry" />
        </mxCell>
        <mxCell id="Xey0vtTrbjJEbhx51ovU-46" value="Sponsor For&amp;nbsp;&lt;br&gt;Tournament" style="html=1;align=center;verticalAlign=top;rounded=1;absoluteArcSize=1;arcSize=10;dashed=0;whiteSpace=wrap;fontFamily=Helvetica;fontSize=11;fillColor=#dae8fc;strokeColor=#6c8ebf;" parent="Xey0vtTrbjJEbhx51ovU-15" vertex="1">
          <mxGeometry x="18.75" y="220" width="102.5" height="40" as="geometry" />
        </mxCell>
        <mxCell id="Xey0vtTrbjJEbhx51ovU-43" style="edgeStyle=orthogonalEdgeStyle;shape=connector;rounded=0;orthogonalLoop=1;jettySize=auto;html=1;exitX=1;exitY=0.25;exitDx=0;exitDy=0;entryX=0.5;entryY=0;entryDx=0;entryDy=0;labelBackgroundColor=default;strokeColor=default;fontFamily=Helvetica;fontSize=11;fontColor=default;endArrow=classic;endFill=1;" parent="Xey0vtTrbjJEbhx51ovU-10" source="Xey0vtTrbjJEbhx51ovU-20" target="Xey0vtTrbjJEbhx51ovU-42" edge="1">
          <mxGeometry relative="1" as="geometry" />
        </mxCell>
        <mxCell id="Xey0vtTrbjJEbhx51ovU-75" style="edgeStyle=orthogonalEdgeStyle;shape=connector;rounded=0;orthogonalLoop=1;jettySize=auto;html=1;exitX=0.75;exitY=0;exitDx=0;exitDy=0;entryX=0.5;entryY=0;entryDx=0;entryDy=0;labelBackgroundColor=default;strokeColor=default;fontFamily=Helvetica;fontSize=11;fontColor=default;endArrow=classic;endFill=1;" parent="Xey0vtTrbjJEbhx51ovU-10" source="Xey0vtTrbjJEbhx51ovU-44" target="Xey0vtTrbjJEbhx51ovU-46" edge="1">
          <mxGeometry relative="1" as="geometry">
            <Array as="points">
              <mxPoint x="525" y="290" />
              <mxPoint x="525" y="220" />
              <mxPoint x="800" y="220" />
            </Array>
          </mxGeometry>
        </mxCell>
        <mxCell id="Xey0vtTrbjJEbhx51ovU-76" style="edgeStyle=orthogonalEdgeStyle;shape=connector;rounded=0;orthogonalLoop=1;jettySize=auto;html=1;exitX=0.5;exitY=1;exitDx=0;exitDy=0;entryX=1;entryY=0.5;entryDx=0;entryDy=0;labelBackgroundColor=default;strokeColor=default;fontFamily=Helvetica;fontSize=11;fontColor=default;endArrow=classic;endFill=1;" parent="Xey0vtTrbjJEbhx51ovU-10" source="Xey0vtTrbjJEbhx51ovU-46" target="Xey0vtTrbjJEbhx51ovU-48" edge="1">
          <mxGeometry relative="1" as="geometry" />
        </mxCell>
        <mxCell id="Xey0vtTrbjJEbhx51ovU-80" style="edgeStyle=orthogonalEdgeStyle;shape=connector;rounded=0;orthogonalLoop=1;jettySize=auto;html=1;exitX=1;exitY=0.5;exitDx=0;exitDy=0;entryX=0;entryY=0.5;entryDx=0;entryDy=0;labelBackgroundColor=default;strokeColor=default;fontFamily=Helvetica;fontSize=11;fontColor=default;endArrow=classic;endFill=1;" parent="Xey0vtTrbjJEbhx51ovU-10" source="Xey0vtTrbjJEbhx51ovU-77" target="Xey0vtTrbjJEbhx51ovU-48" edge="1">
          <mxGeometry relative="1" as="geometry" />
        </mxCell>
        <mxCell id="Xey0vtTrbjJEbhx51ovU-84" style="edgeStyle=orthogonalEdgeStyle;shape=connector;rounded=0;orthogonalLoop=1;jettySize=auto;html=1;labelBackgroundColor=default;strokeColor=default;fontFamily=Helvetica;fontSize=11;fontColor=default;endArrow=classic;endFill=1;entryX=0;entryY=0.5;entryDx=0;entryDy=0;" parent="Xey0vtTrbjJEbhx51ovU-10" source="Xey0vtTrbjJEbhx51ovU-82" target="Xey0vtTrbjJEbhx51ovU-85" edge="1">
          <mxGeometry relative="1" as="geometry">
            <mxPoint x="610" y="465" as="targetPoint" />
          </mxGeometry>
        </mxCell>
        <mxCell id="Xey0vtTrbjJEbhx51ovU-88" value="WON" style="edgeLabel;html=1;align=center;verticalAlign=middle;resizable=0;points=[];fontSize=11;fontFamily=Helvetica;fontColor=default;" parent="Xey0vtTrbjJEbhx51ovU-84" vertex="1" connectable="0">
          <mxGeometry x="-0.3505" relative="1" as="geometry">
            <mxPoint as="offset" />
          </mxGeometry>
        </mxCell>
        <mxCell id="Xey0vtTrbjJEbhx51ovU-91" style="edgeStyle=orthogonalEdgeStyle;shape=connector;rounded=0;orthogonalLoop=1;jettySize=auto;html=1;exitX=0.5;exitY=1;exitDx=0;exitDy=0;entryX=0;entryY=0.5;entryDx=0;entryDy=0;labelBackgroundColor=default;strokeColor=default;fontFamily=Helvetica;fontSize=11;fontColor=default;endArrow=classic;endFill=1;" parent="Xey0vtTrbjJEbhx51ovU-10" source="Xey0vtTrbjJEbhx51ovU-50" target="Xey0vtTrbjJEbhx51ovU-77" edge="1">
          <mxGeometry relative="1" as="geometry">
            <Array as="points">
              <mxPoint x="68" y="405" />
            </Array>
          </mxGeometry>
        </mxCell>
        <mxCell id="Xey0vtTrbjJEbhx51ovU-98" style="edgeStyle=orthogonalEdgeStyle;shape=connector;rounded=0;orthogonalLoop=1;jettySize=auto;html=1;exitX=1;exitY=0.5;exitDx=0;exitDy=0;labelBackgroundColor=default;strokeColor=default;fontFamily=Helvetica;fontSize=11;fontColor=default;endArrow=classic;endFill=1;entryX=-0.328;entryY=0.777;entryDx=0;entryDy=0;entryPerimeter=0;" parent="Xey0vtTrbjJEbhx51ovU-10" source="Xey0vtTrbjJEbhx51ovU-93" target="Xey0vtTrbjJEbhx51ovU-99" edge="1">
          <mxGeometry relative="1" as="geometry">
            <mxPoint x="610" y="560" as="targetPoint" />
            <Array as="points">
              <mxPoint x="610" y="534" />
            </Array>
          </mxGeometry>
        </mxCell>
        <mxCell id="Xey0vtTrbjJEbhx51ovU-102" style="edgeStyle=orthogonalEdgeStyle;shape=connector;rounded=0;orthogonalLoop=1;jettySize=auto;html=1;entryX=1;entryY=0.5;entryDx=0;entryDy=0;labelBackgroundColor=default;strokeColor=default;fontFamily=Helvetica;fontSize=11;fontColor=default;endArrow=classic;endFill=1;" parent="Xey0vtTrbjJEbhx51ovU-10" source="Xey0vtTrbjJEbhx51ovU-68" target="Xey0vtTrbjJEbhx51ovU-50" edge="1">
          <mxGeometry relative="1" as="geometry" />
        </mxCell>
      </root>
    </mxGraphModel>
  </diagram>
  <diagram id="_dA9MJPuL3vz2XxFBRiC" name="ERD">
    <mxGraphModel dx="4290" dy="3393" grid="1" gridSize="10" guides="1" tooltips="1" connect="1" arrows="1" fold="1" page="1" pageScale="1" pageWidth="1900" pageHeight="1920" math="0" shadow="0">
      <root>
        <mxCell id="0" />
        <mxCell id="1" parent="0" />
        <mxCell id="DU0gbjUOqB8wbccmuK8--1" value="ADMIN" style="rounded=0;whiteSpace=wrap;html=1;fillColor=#ffe6cc;strokeColor=#d79b00;" vertex="1" parent="1">
          <mxGeometry x="590" y="404" width="100" height="56" as="geometry" />
        </mxCell>
        <mxCell id="DU0gbjUOqB8wbccmuK8--2" value="A_EMAIL" style="ellipse;whiteSpace=wrap;html=1;fillColor=#dae8fc;strokeColor=#6c8ebf;" vertex="1" parent="1">
          <mxGeometry x="595" y="283" width="90" height="54" as="geometry" />
        </mxCell>
        <mxCell id="DU0gbjUOqB8wbccmuK8--3" value="A_Password" style="ellipse;whiteSpace=wrap;html=1;fillColor=#dae8fc;strokeColor=#6c8ebf;" vertex="1" parent="1">
          <mxGeometry x="690" y="330" width="90" height="54" as="geometry" />
        </mxCell>
        <mxCell id="DU0gbjUOqB8wbccmuK8--4" value="A_Name" style="ellipse;whiteSpace=wrap;html=1;fillColor=#dae8fc;strokeColor=#6c8ebf;" vertex="1" parent="1">
          <mxGeometry x="730" y="400" width="80" height="40" as="geometry" />
        </mxCell>
        <mxCell id="DU0gbjUOqB8wbccmuK8--5" value="&lt;u&gt;A_Id&lt;/u&gt;" style="ellipse;whiteSpace=wrap;html=1;fillColor=#dae8fc;strokeColor=#6c8ebf;" vertex="1" parent="1">
          <mxGeometry x="730" y="480" width="80" height="40" as="geometry" />
        </mxCell>
        <mxCell id="DU0gbjUOqB8wbccmuK8--6" value="" style="endArrow=none;html=1;rounded=0;entryX=0.367;entryY=0.984;entryDx=0;entryDy=0;entryPerimeter=0;exitX=0.5;exitY=0;exitDx=0;exitDy=0;fillColor=#dae8fc;strokeColor=#6c8ebf;" edge="1" parent="1" source="DU0gbjUOqB8wbccmuK8--1" target="DU0gbjUOqB8wbccmuK8--2">
          <mxGeometry width="50" height="50" relative="1" as="geometry">
            <mxPoint x="400" y="450" as="sourcePoint" />
            <mxPoint x="450" y="400" as="targetPoint" />
          </mxGeometry>
        </mxCell>
        <mxCell id="DU0gbjUOqB8wbccmuK8--7" value="" style="endArrow=none;html=1;rounded=0;entryX=0;entryY=1;entryDx=0;entryDy=0;exitX=1;exitY=0;exitDx=0;exitDy=0;fillColor=#dae8fc;strokeColor=#6c8ebf;" edge="1" parent="1" source="DU0gbjUOqB8wbccmuK8--1" target="DU0gbjUOqB8wbccmuK8--3">
          <mxGeometry width="50" height="50" relative="1" as="geometry">
            <mxPoint x="400" y="450" as="sourcePoint" />
            <mxPoint x="450" y="400" as="targetPoint" />
          </mxGeometry>
        </mxCell>
        <mxCell id="DU0gbjUOqB8wbccmuK8--8" value="" style="endArrow=none;html=1;rounded=0;entryX=0;entryY=0.5;entryDx=0;entryDy=0;exitX=1;exitY=0.5;exitDx=0;exitDy=0;fillColor=#dae8fc;strokeColor=#6c8ebf;" edge="1" parent="1" source="DU0gbjUOqB8wbccmuK8--1" target="DU0gbjUOqB8wbccmuK8--4">
          <mxGeometry width="50" height="50" relative="1" as="geometry">
            <mxPoint x="400" y="450" as="sourcePoint" />
            <mxPoint x="450" y="400" as="targetPoint" />
          </mxGeometry>
        </mxCell>
        <mxCell id="DU0gbjUOqB8wbccmuK8--9" value="" style="endArrow=none;html=1;rounded=0;entryX=1;entryY=1;entryDx=0;entryDy=0;exitX=0;exitY=0.5;exitDx=0;exitDy=0;fillColor=#dae8fc;strokeColor=#6c8ebf;" edge="1" parent="1" source="DU0gbjUOqB8wbccmuK8--5" target="DU0gbjUOqB8wbccmuK8--1">
          <mxGeometry width="50" height="50" relative="1" as="geometry">
            <mxPoint x="400" y="450" as="sourcePoint" />
            <mxPoint x="450" y="400" as="targetPoint" />
          </mxGeometry>
        </mxCell>
        <mxCell id="DU0gbjUOqB8wbccmuK8--10" value="MANAGE" style="rhombus;whiteSpace=wrap;html=1;fillColor=#b0e3e6;strokeColor=#0e8088;" vertex="1" parent="1">
          <mxGeometry x="440" y="392" width="80" height="80" as="geometry" />
        </mxCell>
        <mxCell id="DU0gbjUOqB8wbccmuK8--11" style="edgeStyle=none;rounded=0;orthogonalLoop=1;jettySize=auto;html=1;exitX=0;exitY=0.5;exitDx=0;exitDy=0;entryX=1;entryY=0.5;entryDx=0;entryDy=0;endArrow=none;endFill=0;startArrow=ERone;startFill=0;fillColor=#dae8fc;strokeColor=#6c8ebf;" edge="1" parent="1" source="DU0gbjUOqB8wbccmuK8--12" target="DU0gbjUOqB8wbccmuK8--75">
          <mxGeometry relative="1" as="geometry" />
        </mxCell>
        <mxCell id="DU0gbjUOqB8wbccmuK8--12" value="Manager" style="rounded=0;whiteSpace=wrap;html=1;fillColor=#ffe6cc;strokeColor=#d79b00;" vertex="1" parent="1">
          <mxGeometry x="250" y="400" width="120" height="60" as="geometry" />
        </mxCell>
        <mxCell id="DU0gbjUOqB8wbccmuK8--13" style="edgeStyle=none;shape=connector;rounded=0;orthogonalLoop=1;jettySize=auto;html=1;exitX=0;exitY=1;exitDx=0;exitDy=0;entryX=1;entryY=0.5;entryDx=0;entryDy=0;labelBackgroundColor=default;strokeColor=#6c8ebf;fontFamily=Helvetica;fontSize=11;fontColor=default;endArrow=none;endFill=0;startArrow=ERone;startFill=0;fillColor=#dae8fc;" edge="1" parent="1" source="DU0gbjUOqB8wbccmuK8--17" target="DU0gbjUOqB8wbccmuK8--95">
          <mxGeometry relative="1" as="geometry" />
        </mxCell>
        <mxCell id="DU0gbjUOqB8wbccmuK8--14" style="edgeStyle=none;shape=connector;rounded=0;orthogonalLoop=1;jettySize=auto;html=1;exitX=0.75;exitY=1;exitDx=0;exitDy=0;entryX=0;entryY=0;entryDx=0;entryDy=0;labelBackgroundColor=default;strokeColor=#6c8ebf;fontFamily=Helvetica;fontSize=11;fontColor=default;endArrow=none;endFill=0;fillColor=#dae8fc;" edge="1" parent="1" source="DU0gbjUOqB8wbccmuK8--17" target="DU0gbjUOqB8wbccmuK8--137">
          <mxGeometry relative="1" as="geometry" />
        </mxCell>
        <mxCell id="DU0gbjUOqB8wbccmuK8--15" style="edgeStyle=none;shape=connector;rounded=0;orthogonalLoop=1;jettySize=auto;html=1;exitX=1;exitY=0.75;exitDx=0;exitDy=0;entryX=0;entryY=1;entryDx=0;entryDy=0;labelBackgroundColor=default;strokeColor=#6c8ebf;fontFamily=Helvetica;fontSize=11;fontColor=default;endArrow=none;endFill=0;fillColor=#dae8fc;" edge="1" parent="1" source="DU0gbjUOqB8wbccmuK8--17" target="DU0gbjUOqB8wbccmuK8--136">
          <mxGeometry relative="1" as="geometry" />
        </mxCell>
        <mxCell id="DU0gbjUOqB8wbccmuK8--16" style="edgeStyle=none;shape=connector;rounded=0;orthogonalLoop=1;jettySize=auto;html=1;exitX=0.75;exitY=0;exitDx=0;exitDy=0;entryX=0;entryY=1;entryDx=0;entryDy=0;labelBackgroundColor=default;strokeColor=#6c8ebf;fontFamily=Helvetica;fontSize=11;fontColor=default;endArrow=none;endFill=0;fillColor=#dae8fc;" edge="1" parent="1" source="DU0gbjUOqB8wbccmuK8--17" target="DU0gbjUOqB8wbccmuK8--135">
          <mxGeometry relative="1" as="geometry" />
        </mxCell>
        <mxCell id="DU0gbjUOqB8wbccmuK8--17" value="Social Media Manager" style="rounded=0;whiteSpace=wrap;html=1;fillColor=#ffe6cc;strokeColor=#d79b00;" vertex="1" parent="1">
          <mxGeometry x="175.25" y="29" width="120" height="60" as="geometry" />
        </mxCell>
        <mxCell id="DU0gbjUOqB8wbccmuK8--18" style="edgeStyle=none;shape=connector;rounded=0;orthogonalLoop=1;jettySize=auto;html=1;exitX=1;exitY=0.5;exitDx=0;exitDy=0;entryX=0;entryY=0.5;entryDx=0;entryDy=0;labelBackgroundColor=default;strokeColor=#6c8ebf;fontFamily=Helvetica;fontSize=11;fontColor=default;endArrow=none;endFill=0;startArrow=ERoneToMany;startFill=0;fillColor=#dae8fc;" edge="1" parent="1" source="DU0gbjUOqB8wbccmuK8--20" target="DU0gbjUOqB8wbccmuK8--99">
          <mxGeometry relative="1" as="geometry" />
        </mxCell>
        <mxCell id="DU0gbjUOqB8wbccmuK8--19" style="edgeStyle=none;shape=connector;rounded=0;orthogonalLoop=1;jettySize=auto;html=1;exitX=0;exitY=0;exitDx=0;exitDy=0;entryX=0.5;entryY=1;entryDx=0;entryDy=0;labelBackgroundColor=default;strokeColor=#6c8ebf;fontFamily=Helvetica;fontSize=11;fontColor=default;endArrow=none;endFill=0;startArrow=ERoneToMany;startFill=0;fillColor=#dae8fc;" edge="1" parent="1" source="DU0gbjUOqB8wbccmuK8--20" target="DU0gbjUOqB8wbccmuK8--101">
          <mxGeometry relative="1" as="geometry">
            <Array as="points">
              <mxPoint x="-360" y="1060" />
            </Array>
          </mxGeometry>
        </mxCell>
        <mxCell id="DU0gbjUOqB8wbccmuK8--20" value="&lt;font style=&quot;font-size: 14px;&quot;&gt;Companies&lt;/font&gt;" style="rounded=0;whiteSpace=wrap;html=1;fillColor=#ffe6cc;strokeColor=#d79b00;" vertex="1" parent="1">
          <mxGeometry x="-138.52" y="1090" width="120" height="40" as="geometry" />
        </mxCell>
        <mxCell id="DU0gbjUOqB8wbccmuK8--21" value="" style="edgeStyle=orthogonalEdgeStyle;rounded=0;orthogonalLoop=1;jettySize=auto;html=1;endArrow=none;endFill=0;startArrow=ERone;startFill=0;fillColor=#dae8fc;strokeColor=#6c8ebf;" edge="1" parent="1" source="DU0gbjUOqB8wbccmuK8--25" target="DU0gbjUOqB8wbccmuK8--79">
          <mxGeometry relative="1" as="geometry" />
        </mxCell>
        <mxCell id="DU0gbjUOqB8wbccmuK8--22" value="" style="edgeStyle=none;shape=connector;rounded=0;orthogonalLoop=1;jettySize=auto;html=1;labelBackgroundColor=default;strokeColor=#6c8ebf;fontFamily=Helvetica;fontSize=11;fontColor=default;endArrow=none;endFill=0;entryX=0.5;entryY=1;entryDx=0;entryDy=0;startArrow=ERone;startFill=0;fillColor=#dae8fc;" edge="1" parent="1" source="DU0gbjUOqB8wbccmuK8--25" target="DU0gbjUOqB8wbccmuK8--97">
          <mxGeometry relative="1" as="geometry" />
        </mxCell>
        <mxCell id="DU0gbjUOqB8wbccmuK8--23" style="edgeStyle=none;shape=connector;rounded=0;orthogonalLoop=1;jettySize=auto;html=1;exitX=0.75;exitY=0;exitDx=0;exitDy=0;entryX=0;entryY=1;entryDx=0;entryDy=0;labelBackgroundColor=default;strokeColor=#6c8ebf;fontFamily=Helvetica;fontSize=11;fontColor=default;endArrow=none;endFill=0;fillColor=#dae8fc;" edge="1" parent="1" source="DU0gbjUOqB8wbccmuK8--25" target="DU0gbjUOqB8wbccmuK8--161">
          <mxGeometry relative="1" as="geometry" />
        </mxCell>
        <mxCell id="DU0gbjUOqB8wbccmuK8--24" style="edgeStyle=none;shape=connector;rounded=0;orthogonalLoop=1;jettySize=auto;html=1;exitX=1;exitY=0.25;exitDx=0;exitDy=0;entryX=0.058;entryY=0.728;entryDx=0;entryDy=0;entryPerimeter=0;labelBackgroundColor=default;strokeColor=#6c8ebf;fontFamily=Helvetica;fontSize=11;fontColor=default;endArrow=none;endFill=0;fillColor=#dae8fc;" edge="1" parent="1" source="DU0gbjUOqB8wbccmuK8--25" target="DU0gbjUOqB8wbccmuK8--162">
          <mxGeometry relative="1" as="geometry" />
        </mxCell>
        <mxCell id="DU0gbjUOqB8wbccmuK8--25" value="Finance" style="rounded=0;whiteSpace=wrap;html=1;fillColor=#ffe6cc;strokeColor=#d79b00;" vertex="1" parent="1">
          <mxGeometry x="-160" y="400" width="120" height="60" as="geometry" />
        </mxCell>
        <mxCell id="DU0gbjUOqB8wbccmuK8--26" style="edgeStyle=orthogonalEdgeStyle;rounded=0;orthogonalLoop=1;jettySize=auto;html=1;entryX=0.5;entryY=0;entryDx=0;entryDy=0;endArrow=none;endFill=0;startArrow=ERone;startFill=0;exitX=0.658;exitY=1.01;exitDx=0;exitDy=0;exitPerimeter=0;curved=1;fillColor=#dae8fc;strokeColor=#6c8ebf;" edge="1" parent="1" source="DU0gbjUOqB8wbccmuK8--29" target="DU0gbjUOqB8wbccmuK8--42">
          <mxGeometry relative="1" as="geometry">
            <mxPoint x="570" y="930" as="sourcePoint" />
            <Array as="points">
              <mxPoint x="567" y="930" />
              <mxPoint x="430" y="930" />
              <mxPoint x="430" y="925" />
              <mxPoint x="346" y="925" />
            </Array>
          </mxGeometry>
        </mxCell>
        <mxCell id="DU0gbjUOqB8wbccmuK8--27" value="" style="edgeStyle=none;shape=connector;rounded=0;orthogonalLoop=1;jettySize=auto;html=1;labelBackgroundColor=default;strokeColor=#6c8ebf;fontFamily=Helvetica;fontSize=11;fontColor=default;endArrow=none;endFill=0;startArrow=ERoneToMany;startFill=0;fillColor=#dae8fc;" edge="1" parent="1" source="DU0gbjUOqB8wbccmuK8--29" target="DU0gbjUOqB8wbccmuK8--91">
          <mxGeometry relative="1" as="geometry" />
        </mxCell>
        <mxCell id="DU0gbjUOqB8wbccmuK8--28" style="edgeStyle=none;shape=connector;rounded=0;orthogonalLoop=1;jettySize=auto;html=1;exitX=0;exitY=0;exitDx=0;exitDy=0;entryX=0.5;entryY=1;entryDx=0;entryDy=0;labelBackgroundColor=default;strokeColor=#6c8ebf;fontFamily=Helvetica;fontSize=11;fontColor=default;endArrow=none;endFill=0;fillColor=#dae8fc;" edge="1" parent="1" source="DU0gbjUOqB8wbccmuK8--29" target="DU0gbjUOqB8wbccmuK8--230">
          <mxGeometry relative="1" as="geometry">
            <mxPoint x="420.8299999999999" y="630" as="targetPoint" />
          </mxGeometry>
        </mxCell>
        <mxCell id="DU0gbjUOqB8wbccmuK8--29" value="Teams" style="rounded=0;whiteSpace=wrap;html=1;fillColor=#ffe6cc;strokeColor=#d79b00;" vertex="1" parent="1">
          <mxGeometry x="488.33000000000004" y="665" width="120" height="60" as="geometry" />
        </mxCell>
        <mxCell id="DU0gbjUOqB8wbccmuK8--30" style="edgeStyle=none;shape=connector;rounded=0;orthogonalLoop=1;jettySize=auto;html=1;exitX=0.25;exitY=1;exitDx=0;exitDy=0;entryX=0.56;entryY=0.008;entryDx=0;entryDy=0;entryPerimeter=0;labelBackgroundColor=default;strokeColor=#6c8ebf;fontFamily=Helvetica;fontSize=11;fontColor=default;endArrow=none;endFill=0;fillColor=#dae8fc;" edge="1" parent="1" source="DU0gbjUOqB8wbccmuK8--31" target="DU0gbjUOqB8wbccmuK8--200">
          <mxGeometry relative="1" as="geometry" />
        </mxCell>
        <mxCell id="DU0gbjUOqB8wbccmuK8--31" value="&amp;nbsp;Players" style="rounded=0;whiteSpace=wrap;html=1;fillColor=#ffe6cc;strokeColor=#d79b00;" vertex="1" parent="1">
          <mxGeometry x="388.33" y="1092.5" width="120" height="40" as="geometry" />
        </mxCell>
        <mxCell id="DU0gbjUOqB8wbccmuK8--32" value="" style="edgeStyle=orthogonalEdgeStyle;rounded=0;orthogonalLoop=1;jettySize=auto;html=1;endArrow=ERone;endFill=0;fillColor=#dae8fc;strokeColor=#6c8ebf;" edge="1" parent="1" source="DU0gbjUOqB8wbccmuK8--34" target="DU0gbjUOqB8wbccmuK8--12">
          <mxGeometry relative="1" as="geometry" />
        </mxCell>
        <mxCell id="DU0gbjUOqB8wbccmuK8--33" value="" style="edgeStyle=orthogonalEdgeStyle;rounded=0;orthogonalLoop=1;jettySize=auto;html=1;endArrow=ERone;endFill=0;fillColor=#dae8fc;strokeColor=#6c8ebf;" edge="1" parent="1" source="DU0gbjUOqB8wbccmuK8--34" target="DU0gbjUOqB8wbccmuK8--29">
          <mxGeometry relative="1" as="geometry" />
        </mxCell>
        <mxCell id="DU0gbjUOqB8wbccmuK8--34" value="MANAGE" style="rhombus;whiteSpace=wrap;html=1;fillColor=#b0e3e6;strokeColor=#0e8088;" vertex="1" parent="1">
          <mxGeometry x="508.33000000000004" y="495" width="80" height="80" as="geometry" />
        </mxCell>
        <mxCell id="DU0gbjUOqB8wbccmuK8--35" value="Tm_&lt;u&gt;Id&lt;/u&gt;" style="ellipse;whiteSpace=wrap;html=1;fillColor=#dae8fc;strokeColor=#6c8ebf;" vertex="1" parent="1">
          <mxGeometry x="700" y="785" width="90" height="60" as="geometry" />
        </mxCell>
        <mxCell id="DU0gbjUOqB8wbccmuK8--36" value="" style="endArrow=none;html=1;rounded=0;exitX=0.333;exitY=0.013;exitDx=0;exitDy=0;entryX=1;entryY=1;entryDx=0;entryDy=0;exitPerimeter=0;fillColor=#dae8fc;strokeColor=#6c8ebf;" edge="1" parent="1" source="DU0gbjUOqB8wbccmuK8--35" target="DU0gbjUOqB8wbccmuK8--29">
          <mxGeometry width="50" height="50" relative="1" as="geometry">
            <mxPoint x="400" y="430" as="sourcePoint" />
            <mxPoint x="450" y="380" as="targetPoint" />
          </mxGeometry>
        </mxCell>
        <mxCell id="DU0gbjUOqB8wbccmuK8--37" value="Tm_Name" style="ellipse;whiteSpace=wrap;html=1;fillColor=#dae8fc;strokeColor=#6c8ebf;" vertex="1" parent="1">
          <mxGeometry x="700" y="690" width="90" height="50" as="geometry" />
        </mxCell>
        <mxCell id="DU0gbjUOqB8wbccmuK8--38" value="Tm_Country" style="ellipse;whiteSpace=wrap;html=1;fillColor=#dae8fc;strokeColor=#6c8ebf;" vertex="1" parent="1">
          <mxGeometry x="710" y="600" width="90" height="50" as="geometry" />
        </mxCell>
        <mxCell id="DU0gbjUOqB8wbccmuK8--39" value="" style="endArrow=none;html=1;rounded=0;exitX=0;exitY=0.5;exitDx=0;exitDy=0;entryX=1;entryY=0.75;entryDx=0;entryDy=0;fillColor=#dae8fc;strokeColor=#6c8ebf;" edge="1" parent="1" source="DU0gbjUOqB8wbccmuK8--37" target="DU0gbjUOqB8wbccmuK8--29">
          <mxGeometry width="50" height="50" relative="1" as="geometry">
            <mxPoint x="400" y="430" as="sourcePoint" />
            <mxPoint x="450" y="380" as="targetPoint" />
          </mxGeometry>
        </mxCell>
        <mxCell id="DU0gbjUOqB8wbccmuK8--40" value="" style="endArrow=none;html=1;rounded=0;exitX=0;exitY=0.5;exitDx=0;exitDy=0;entryX=1;entryY=0.25;entryDx=0;entryDy=0;fillColor=#dae8fc;strokeColor=#6c8ebf;" edge="1" parent="1" source="DU0gbjUOqB8wbccmuK8--38" target="DU0gbjUOqB8wbccmuK8--29">
          <mxGeometry width="50" height="50" relative="1" as="geometry">
            <mxPoint x="400" y="430" as="sourcePoint" />
            <mxPoint x="450" y="380" as="targetPoint" />
          </mxGeometry>
        </mxCell>
        <mxCell id="DU0gbjUOqB8wbccmuK8--41" value="" style="endArrow=none;html=1;rounded=0;exitX=1;exitY=0.5;exitDx=0;exitDy=0;entryX=0;entryY=0.5;entryDx=0;entryDy=0;startArrow=ERoneToMany;startFill=0;fillColor=#dae8fc;strokeColor=#6c8ebf;" edge="1" parent="1" source="DU0gbjUOqB8wbccmuK8--12" target="DU0gbjUOqB8wbccmuK8--10">
          <mxGeometry width="50" height="50" relative="1" as="geometry">
            <mxPoint x="400" y="430" as="sourcePoint" />
            <mxPoint x="450" y="380" as="targetPoint" />
          </mxGeometry>
        </mxCell>
        <mxCell id="DU0gbjUOqB8wbccmuK8--42" value="Formed" style="rhombus;whiteSpace=wrap;html=1;fillColor=#b0e3e6;strokeColor=#0e8088;" vertex="1" parent="1">
          <mxGeometry x="322.49999999999994" y="952.5" width="60" height="70" as="geometry" />
        </mxCell>
        <mxCell id="DU0gbjUOqB8wbccmuK8--43" value="P_Id" style="ellipse;whiteSpace=wrap;html=1;fillColor=#dae8fc;strokeColor=#6c8ebf;" vertex="1" parent="1">
          <mxGeometry x="665" y="1185" width="100" height="50" as="geometry" />
        </mxCell>
        <mxCell id="DU0gbjUOqB8wbccmuK8--44" value="" style="edgeStyle=entityRelationEdgeStyle;fontSize=12;html=1;endArrow=none;rounded=0;exitX=0;exitY=0.5;exitDx=0;exitDy=0;entryX=1;entryY=0.5;entryDx=0;entryDy=0;strokeColor=#6c8ebf;startArrow=ERone;startFill=0;endFill=0;fillColor=#dae8fc;" edge="1" parent="1" source="DU0gbjUOqB8wbccmuK8--1" target="DU0gbjUOqB8wbccmuK8--10">
          <mxGeometry width="100" height="100" relative="1" as="geometry">
            <mxPoint x="440" y="590" as="sourcePoint" />
            <mxPoint x="540" y="490" as="targetPoint" />
          </mxGeometry>
        </mxCell>
        <mxCell id="DU0gbjUOqB8wbccmuK8--45" value="" style="endArrow=none;html=1;rounded=0;exitX=0;exitY=0;exitDx=0;exitDy=0;entryX=0.5;entryY=1;entryDx=0;entryDy=0;endFill=0;startArrow=ERoneToMany;startFill=0;fillColor=#dae8fc;strokeColor=#6c8ebf;" edge="1" parent="1" source="DU0gbjUOqB8wbccmuK8--31" target="DU0gbjUOqB8wbccmuK8--42">
          <mxGeometry width="50" height="50" relative="1" as="geometry">
            <mxPoint x="548.33" y="892.5" as="sourcePoint" />
            <mxPoint x="598.33" y="842.5" as="targetPoint" />
          </mxGeometry>
        </mxCell>
        <mxCell id="DU0gbjUOqB8wbccmuK8--46" value="P_Name" style="ellipse;whiteSpace=wrap;html=1;fillColor=#dae8fc;strokeColor=#6c8ebf;" vertex="1" parent="1">
          <mxGeometry x="580" y="1205" width="72.5" height="40" as="geometry" />
        </mxCell>
        <mxCell id="DU0gbjUOqB8wbccmuK8--47" value="P_Dob" style="ellipse;whiteSpace=wrap;html=1;fillColor=#dae8fc;strokeColor=#6c8ebf;" vertex="1" parent="1">
          <mxGeometry x="595" y="1105" width="105" height="50" as="geometry" />
        </mxCell>
        <mxCell id="DU0gbjUOqB8wbccmuK8--48" value="P_Phone" style="ellipse;shape=doubleEllipse;margin=3;whiteSpace=wrap;html=1;align=center;fillColor=#dae8fc;strokeColor=#6c8ebf;" vertex="1" parent="1">
          <mxGeometry x="478.33" y="980" width="90" height="50" as="geometry" />
        </mxCell>
        <mxCell id="DU0gbjUOqB8wbccmuK8--49" value="P_Address" style="ellipse;whiteSpace=wrap;html=1;align=center;fillColor=#dae8fc;strokeColor=#6c8ebf;" vertex="1" parent="1">
          <mxGeometry x="590" y="1024.5" width="100" height="40" as="geometry" />
        </mxCell>
        <mxCell id="DU0gbjUOqB8wbccmuK8--50" style="edgeStyle=orthogonalEdgeStyle;shape=connector;rounded=0;orthogonalLoop=1;jettySize=auto;html=1;exitX=0.5;exitY=0;exitDx=0;exitDy=0;labelBackgroundColor=default;strokeColor=#6c8ebf;fontFamily=Helvetica;fontSize=11;fontColor=default;endArrow=none;endFill=0;fillColor=#dae8fc;" edge="1" parent="1" source="DU0gbjUOqB8wbccmuK8--51">
          <mxGeometry relative="1" as="geometry">
            <mxPoint x="710" y="950" as="targetPoint" />
          </mxGeometry>
        </mxCell>
        <mxCell id="DU0gbjUOqB8wbccmuK8--51" value="COUNTRY" style="ellipse;whiteSpace=wrap;html=1;align=center;fillColor=#dae8fc;strokeColor=#6c8ebf;" vertex="1" parent="1">
          <mxGeometry x="660" y="952.5" width="100" height="40" as="geometry" />
        </mxCell>
        <mxCell id="DU0gbjUOqB8wbccmuK8--52" value="CITY" style="ellipse;whiteSpace=wrap;html=1;align=center;fillColor=#dae8fc;strokeColor=#6c8ebf;" vertex="1" parent="1">
          <mxGeometry x="720" y="997.5" width="100" height="40" as="geometry" />
        </mxCell>
        <mxCell id="DU0gbjUOqB8wbccmuK8--53" value="ZIP CODE" style="ellipse;whiteSpace=wrap;html=1;align=center;fillColor=#dae8fc;strokeColor=#6c8ebf;" vertex="1" parent="1">
          <mxGeometry x="720" y="1052.5" width="100" height="40" as="geometry" />
        </mxCell>
        <mxCell id="DU0gbjUOqB8wbccmuK8--54" value="ROAD NO" style="ellipse;whiteSpace=wrap;html=1;align=center;fillColor=#dae8fc;strokeColor=#6c8ebf;" vertex="1" parent="1">
          <mxGeometry x="720" y="1105" width="100" height="40" as="geometry" />
        </mxCell>
        <mxCell id="DU0gbjUOqB8wbccmuK8--55" style="edgeStyle=orthogonalEdgeStyle;rounded=0;orthogonalLoop=1;jettySize=auto;html=1;exitX=0.5;exitY=1;exitDx=0;exitDy=0;fillColor=#dae8fc;strokeColor=#6c8ebf;" edge="1" parent="1">
          <mxGeometry relative="1" as="geometry">
            <mxPoint x="758.33" y="1152.5" as="sourcePoint" />
            <mxPoint x="758.33" y="1152.5" as="targetPoint" />
          </mxGeometry>
        </mxCell>
        <mxCell id="DU0gbjUOqB8wbccmuK8--56" value="" style="endArrow=none;html=1;rounded=0;entryX=0.4;entryY=1;entryDx=0;entryDy=0;entryPerimeter=0;exitX=0.689;exitY=0.004;exitDx=0;exitDy=0;exitPerimeter=0;fillColor=#dae8fc;strokeColor=#6c8ebf;" edge="1" parent="1" source="DU0gbjUOqB8wbccmuK8--49" target="DU0gbjUOqB8wbccmuK8--51">
          <mxGeometry width="50" height="50" relative="1" as="geometry">
            <mxPoint x="448.33" y="952.5" as="sourcePoint" />
            <mxPoint x="498.33" y="902.5" as="targetPoint" />
          </mxGeometry>
        </mxCell>
        <mxCell id="DU0gbjUOqB8wbccmuK8--57" value="" style="endArrow=none;html=1;rounded=0;entryX=0.062;entryY=0.73;entryDx=0;entryDy=0;exitX=1;exitY=0;exitDx=0;exitDy=0;entryPerimeter=0;fillColor=#dae8fc;strokeColor=#6c8ebf;" edge="1" parent="1" source="DU0gbjUOqB8wbccmuK8--49" target="DU0gbjUOqB8wbccmuK8--52">
          <mxGeometry width="50" height="50" relative="1" as="geometry">
            <mxPoint x="657.33" y="1052.5" as="sourcePoint" />
            <mxPoint x="718.33" y="1012.5" as="targetPoint" />
          </mxGeometry>
        </mxCell>
        <mxCell id="DU0gbjUOqB8wbccmuK8--58" value="" style="endArrow=none;html=1;rounded=0;exitX=1;exitY=0.5;exitDx=0;exitDy=0;entryX=0;entryY=0.5;entryDx=0;entryDy=0;fillColor=#dae8fc;strokeColor=#6c8ebf;" edge="1" parent="1" source="DU0gbjUOqB8wbccmuK8--49" target="DU0gbjUOqB8wbccmuK8--53">
          <mxGeometry width="50" height="50" relative="1" as="geometry">
            <mxPoint x="667.33" y="1062.5" as="sourcePoint" />
            <mxPoint x="720.1541045184664" y="1067.1471227242746" as="targetPoint" />
          </mxGeometry>
        </mxCell>
        <mxCell id="DU0gbjUOqB8wbccmuK8--59" value="" style="endArrow=none;html=1;rounded=0;exitX=1;exitY=1;exitDx=0;exitDy=0;entryX=0;entryY=0;entryDx=0;entryDy=0;fillColor=#dae8fc;strokeColor=#6c8ebf;" edge="1" parent="1" source="DU0gbjUOqB8wbccmuK8--49">
          <mxGeometry width="50" height="50" relative="1" as="geometry">
            <mxPoint x="508.33" y="952.5" as="sourcePoint" />
            <mxPoint x="722.9746609406731" y="1118.357864376269" as="targetPoint" />
          </mxGeometry>
        </mxCell>
        <mxCell id="DU0gbjUOqB8wbccmuK8--60" value="" style="endArrow=none;html=1;rounded=0;entryX=1;entryY=0.5;entryDx=0;entryDy=0;fillColor=#dae8fc;strokeColor=#6c8ebf;" edge="1" parent="1" source="DU0gbjUOqB8wbccmuK8--43" target="DU0gbjUOqB8wbccmuK8--31">
          <mxGeometry width="50" height="50" relative="1" as="geometry">
            <mxPoint x="508.33" y="1262.5" as="sourcePoint" />
            <mxPoint x="558.33" y="1212.5" as="targetPoint" />
          </mxGeometry>
        </mxCell>
        <mxCell id="DU0gbjUOqB8wbccmuK8--61" value="" style="endArrow=none;html=1;rounded=0;entryX=0.936;entryY=1.034;entryDx=0;entryDy=0;exitX=0.5;exitY=0;exitDx=0;exitDy=0;entryPerimeter=0;fillColor=#dae8fc;strokeColor=#6c8ebf;" edge="1" parent="1" source="DU0gbjUOqB8wbccmuK8--46" target="DU0gbjUOqB8wbccmuK8--31">
          <mxGeometry width="50" height="50" relative="1" as="geometry">
            <mxPoint x="547.33" y="1263.5" as="sourcePoint" />
            <mxPoint x="502.33" y="1164.5" as="targetPoint" />
          </mxGeometry>
        </mxCell>
        <mxCell id="DU0gbjUOqB8wbccmuK8--62" value="" style="endArrow=none;html=1;rounded=0;entryX=1;entryY=0.25;entryDx=0;entryDy=0;exitX=0;exitY=0.5;exitDx=0;exitDy=0;fillColor=#dae8fc;strokeColor=#6c8ebf;" edge="1" parent="1" source="DU0gbjUOqB8wbccmuK8--47" target="DU0gbjUOqB8wbccmuK8--31">
          <mxGeometry width="50" height="50" relative="1" as="geometry">
            <mxPoint x="567.33" y="1283.5" as="sourcePoint" />
            <mxPoint x="522.33" y="1184.5" as="targetPoint" />
          </mxGeometry>
        </mxCell>
        <mxCell id="DU0gbjUOqB8wbccmuK8--63" value="" style="endArrow=none;html=1;rounded=0;entryX=0.75;entryY=0;entryDx=0;entryDy=0;exitX=0.5;exitY=1;exitDx=0;exitDy=0;fillColor=#dae8fc;strokeColor=#6c8ebf;" edge="1" parent="1" source="DU0gbjUOqB8wbccmuK8--48" target="DU0gbjUOqB8wbccmuK8--31">
          <mxGeometry width="50" height="50" relative="1" as="geometry">
            <mxPoint x="577.33" y="1293.5" as="sourcePoint" />
            <mxPoint x="532.33" y="1194.5" as="targetPoint" />
          </mxGeometry>
        </mxCell>
        <mxCell id="DU0gbjUOqB8wbccmuK8--64" value="" style="endArrow=none;html=1;rounded=0;entryX=1;entryY=0;entryDx=0;entryDy=0;exitX=0;exitY=0.5;exitDx=0;exitDy=0;fillColor=#dae8fc;strokeColor=#6c8ebf;" edge="1" parent="1" source="DU0gbjUOqB8wbccmuK8--49" target="DU0gbjUOqB8wbccmuK8--31">
          <mxGeometry width="50" height="50" relative="1" as="geometry">
            <mxPoint x="587.33" y="1303.5" as="sourcePoint" />
            <mxPoint x="542.33" y="1204.5" as="targetPoint" />
          </mxGeometry>
        </mxCell>
        <mxCell id="DU0gbjUOqB8wbccmuK8--65" value="Tm_EstablishedDate" style="ellipse;whiteSpace=wrap;html=1;align=center;fillColor=#dae8fc;strokeColor=#6c8ebf;" vertex="1" parent="1">
          <mxGeometry x="630" y="525" width="130" height="50" as="geometry" />
        </mxCell>
        <mxCell id="DU0gbjUOqB8wbccmuK8--66" value="" style="endArrow=none;html=1;rounded=0;exitX=0.75;exitY=0;exitDx=0;exitDy=0;entryX=0;entryY=0.5;entryDx=0;entryDy=0;fillColor=#dae8fc;strokeColor=#6c8ebf;" edge="1" parent="1" source="DU0gbjUOqB8wbccmuK8--29" target="DU0gbjUOqB8wbccmuK8--65">
          <mxGeometry width="50" height="50" relative="1" as="geometry">
            <mxPoint x="530" y="810" as="sourcePoint" />
            <mxPoint x="580" y="760" as="targetPoint" />
          </mxGeometry>
        </mxCell>
        <mxCell id="DU0gbjUOqB8wbccmuK8--67" value="" style="edgeStyle=orthogonalEdgeStyle;rounded=0;orthogonalLoop=1;jettySize=auto;html=1;endArrow=none;endFill=0;startArrow=ERoneToMany;startFill=0;fillColor=#dae8fc;strokeColor=#6c8ebf;" edge="1" parent="1" source="DU0gbjUOqB8wbccmuK8--68" target="DU0gbjUOqB8wbccmuK8--83">
          <mxGeometry relative="1" as="geometry" />
        </mxCell>
        <mxCell id="DU0gbjUOqB8wbccmuK8--68" value="ORGANIZER" style="rounded=0;whiteSpace=wrap;html=1;fillColor=#ffe6cc;strokeColor=#d79b00;" vertex="1" parent="1">
          <mxGeometry x="-560" y="400" width="120" height="60" as="geometry" />
        </mxCell>
        <mxCell id="DU0gbjUOqB8wbccmuK8--69" style="edgeStyle=orthogonalEdgeStyle;rounded=0;orthogonalLoop=1;jettySize=auto;html=1;exitX=1;exitY=0.5;exitDx=0;exitDy=0;entryX=0;entryY=0.5;entryDx=0;entryDy=0;endArrow=none;endFill=0;startArrow=ERone;startFill=0;fillColor=#dae8fc;strokeColor=#6c8ebf;" edge="1" parent="1" source="DU0gbjUOqB8wbccmuK8--71" target="DU0gbjUOqB8wbccmuK8--87">
          <mxGeometry relative="1" as="geometry" />
        </mxCell>
        <mxCell id="DU0gbjUOqB8wbccmuK8--70" style="edgeStyle=none;shape=connector;rounded=0;orthogonalLoop=1;jettySize=auto;html=1;exitX=1;exitY=1;exitDx=0;exitDy=0;entryX=0.5;entryY=0;entryDx=0;entryDy=0;labelBackgroundColor=default;strokeColor=#6c8ebf;fontFamily=Helvetica;fontSize=11;fontColor=default;endArrow=none;endFill=0;startArrow=ERoneToMany;startFill=0;fillColor=#dae8fc;" edge="1" parent="1" source="DU0gbjUOqB8wbccmuK8--71" target="DU0gbjUOqB8wbccmuK8--180">
          <mxGeometry relative="1" as="geometry" />
        </mxCell>
        <mxCell id="DU0gbjUOqB8wbccmuK8--71" value="TOURNAMENT" style="rounded=0;whiteSpace=wrap;html=1;fillColor=#ffe6cc;strokeColor=#d79b00;" vertex="1" parent="1">
          <mxGeometry x="-560" y="655" width="120" height="60" as="geometry" />
        </mxCell>
        <mxCell id="DU0gbjUOqB8wbccmuK8--72" style="edgeStyle=none;shape=connector;rounded=0;orthogonalLoop=1;jettySize=auto;html=1;exitX=0.75;exitY=0;exitDx=0;exitDy=0;entryX=0.5;entryY=1;entryDx=0;entryDy=0;labelBackgroundColor=default;strokeColor=#6c8ebf;fontFamily=Helvetica;fontSize=11;fontColor=default;endArrow=none;endFill=0;fillColor=#dae8fc;" edge="1" parent="1" source="DU0gbjUOqB8wbccmuK8--73" target="DU0gbjUOqB8wbccmuK8--102">
          <mxGeometry relative="1" as="geometry" />
        </mxCell>
        <mxCell id="DU0gbjUOqB8wbccmuK8--73" value="GAME" style="rounded=0;whiteSpace=wrap;html=1;fillColor=#dae8fc;strokeColor=#6c8ebf;" vertex="1" parent="1">
          <mxGeometry x="-110" y="655" width="120" height="60" as="geometry" />
        </mxCell>
        <mxCell id="DU0gbjUOqB8wbccmuK8--74" value="" style="edgeStyle=none;rounded=0;orthogonalLoop=1;jettySize=auto;html=1;endArrow=ERone;endFill=0;jumpSize=12;fillColor=#dae8fc;strokeColor=#6c8ebf;" edge="1" parent="1" source="DU0gbjUOqB8wbccmuK8--75" target="DU0gbjUOqB8wbccmuK8--25">
          <mxGeometry relative="1" as="geometry" />
        </mxCell>
        <mxCell id="DU0gbjUOqB8wbccmuK8--75" value="MANAGE" style="rhombus;whiteSpace=wrap;html=1;fillColor=#b0e3e6;strokeColor=#0e8088;" vertex="1" parent="1">
          <mxGeometry x="50" y="390" width="80" height="80" as="geometry" />
        </mxCell>
        <mxCell id="DU0gbjUOqB8wbccmuK8--76" style="rounded=0;orthogonalLoop=1;jettySize=auto;html=1;entryX=0.25;entryY=0;entryDx=0;entryDy=0;endArrow=none;endFill=0;fillColor=#dae8fc;strokeColor=#6c8ebf;" edge="1" parent="1" source="DU0gbjUOqB8wbccmuK8--77" target="DU0gbjUOqB8wbccmuK8--25">
          <mxGeometry relative="1" as="geometry" />
        </mxCell>
        <mxCell id="DU0gbjUOqB8wbccmuK8--77" value="&lt;u&gt;F_Id&lt;/u&gt;" style="ellipse;whiteSpace=wrap;html=1;fillColor=#dae8fc;strokeColor=#6c8ebf;" vertex="1" parent="1">
          <mxGeometry x="-265.75" y="310" width="80" height="40" as="geometry" />
        </mxCell>
        <mxCell id="DU0gbjUOqB8wbccmuK8--78" style="edgeStyle=orthogonalEdgeStyle;rounded=0;orthogonalLoop=1;jettySize=auto;html=1;entryX=1;entryY=0.5;entryDx=0;entryDy=0;endArrow=ERoneToMany;endFill=0;fillColor=#dae8fc;strokeColor=#6c8ebf;" edge="1" parent="1" source="DU0gbjUOqB8wbccmuK8--79" target="DU0gbjUOqB8wbccmuK8--68">
          <mxGeometry relative="1" as="geometry" />
        </mxCell>
        <mxCell id="DU0gbjUOqB8wbccmuK8--79" value="PAYS" style="rhombus;whiteSpace=wrap;html=1;fillColor=#b0e3e6;strokeColor=#0e8088;" vertex="1" parent="1">
          <mxGeometry x="-330" y="390" width="80" height="80" as="geometry" />
        </mxCell>
        <mxCell id="DU0gbjUOqB8wbccmuK8--80" value="" style="rounded=0;orthogonalLoop=1;jettySize=auto;html=1;endArrow=none;endFill=0;fillColor=#dae8fc;strokeColor=#6c8ebf;" edge="1" parent="1" source="DU0gbjUOqB8wbccmuK8--81" target="DU0gbjUOqB8wbccmuK8--68">
          <mxGeometry relative="1" as="geometry" />
        </mxCell>
        <mxCell id="DU0gbjUOqB8wbccmuK8--81" value="&lt;u&gt;O_Id&lt;/u&gt;" style="ellipse;whiteSpace=wrap;html=1;fillColor=#dae8fc;strokeColor=#6c8ebf;" vertex="1" parent="1">
          <mxGeometry x="-540" y="297" width="80" height="40" as="geometry" />
        </mxCell>
        <mxCell id="DU0gbjUOqB8wbccmuK8--82" value="" style="edgeStyle=orthogonalEdgeStyle;rounded=0;orthogonalLoop=1;jettySize=auto;html=1;endArrow=ERoneToMany;endFill=0;fillColor=#dae8fc;strokeColor=#6c8ebf;" edge="1" parent="1" source="DU0gbjUOqB8wbccmuK8--83" target="DU0gbjUOqB8wbccmuK8--71">
          <mxGeometry relative="1" as="geometry" />
        </mxCell>
        <mxCell id="DU0gbjUOqB8wbccmuK8--83" value="HOST" style="rhombus;whiteSpace=wrap;html=1;fillColor=#b0e3e6;strokeColor=#0e8088;" vertex="1" parent="1">
          <mxGeometry x="-540" y="525" width="80" height="80" as="geometry" />
        </mxCell>
        <mxCell id="DU0gbjUOqB8wbccmuK8--84" style="rounded=0;orthogonalLoop=1;jettySize=auto;html=1;exitX=1;exitY=0.5;exitDx=0;exitDy=0;entryX=0;entryY=0.5;entryDx=0;entryDy=0;endArrow=none;endFill=0;fillColor=#dae8fc;strokeColor=#6c8ebf;" edge="1" parent="1" source="DU0gbjUOqB8wbccmuK8--85" target="DU0gbjUOqB8wbccmuK8--71">
          <mxGeometry relative="1" as="geometry" />
        </mxCell>
        <mxCell id="DU0gbjUOqB8wbccmuK8--85" value="T_Id" style="ellipse;whiteSpace=wrap;html=1;fillColor=#dae8fc;strokeColor=#6c8ebf;" vertex="1" parent="1">
          <mxGeometry x="-720" y="665" width="80" height="40" as="geometry" />
        </mxCell>
        <mxCell id="DU0gbjUOqB8wbccmuK8--86" style="rounded=0;orthogonalLoop=1;jettySize=auto;html=1;entryX=0;entryY=0.5;entryDx=0;entryDy=0;endArrow=ERoneToMany;endFill=0;fillColor=#dae8fc;strokeColor=#6c8ebf;" edge="1" parent="1" source="DU0gbjUOqB8wbccmuK8--87" target="DU0gbjUOqB8wbccmuK8--73">
          <mxGeometry relative="1" as="geometry" />
        </mxCell>
        <mxCell id="DU0gbjUOqB8wbccmuK8--87" value="HAS" style="rhombus;whiteSpace=wrap;html=1;fillColor=#b0e3e6;strokeColor=#0e8088;" vertex="1" parent="1">
          <mxGeometry x="-340" y="645" width="80" height="80" as="geometry" />
        </mxCell>
        <mxCell id="DU0gbjUOqB8wbccmuK8--88" style="rounded=0;orthogonalLoop=1;jettySize=auto;html=1;exitX=0.5;exitY=1;exitDx=0;exitDy=0;endArrow=none;endFill=0;fillColor=#dae8fc;strokeColor=#6c8ebf;" edge="1" parent="1" source="DU0gbjUOqB8wbccmuK8--89" target="DU0gbjUOqB8wbccmuK8--73">
          <mxGeometry relative="1" as="geometry" />
        </mxCell>
        <mxCell id="DU0gbjUOqB8wbccmuK8--89" value="&lt;u&gt;G_Id&lt;/u&gt;" style="ellipse;whiteSpace=wrap;html=1;fillColor=#dae8fc;strokeColor=#6c8ebf;" vertex="1" parent="1">
          <mxGeometry x="-110" y="540" width="80" height="40" as="geometry" />
        </mxCell>
        <mxCell id="DU0gbjUOqB8wbccmuK8--90" value="" style="edgeStyle=none;shape=connector;rounded=0;orthogonalLoop=1;jettySize=auto;html=1;labelBackgroundColor=default;strokeColor=#6c8ebf;fontFamily=Helvetica;fontSize=11;fontColor=default;endArrow=ERoneToMany;endFill=0;fillColor=#dae8fc;" edge="1" parent="1" source="DU0gbjUOqB8wbccmuK8--91" target="DU0gbjUOqB8wbccmuK8--73">
          <mxGeometry relative="1" as="geometry" />
        </mxCell>
        <mxCell id="DU0gbjUOqB8wbccmuK8--91" value="PARTICIPATES&amp;nbsp;" style="rhombus;whiteSpace=wrap;html=1;fillColor=#b0e3e6;strokeColor=#0e8088;" vertex="1" parent="1">
          <mxGeometry x="192.5" y="630" width="110" height="75" as="geometry" />
        </mxCell>
        <mxCell id="DU0gbjUOqB8wbccmuK8--92" style="edgeStyle=none;shape=connector;rounded=0;orthogonalLoop=1;jettySize=auto;html=1;exitX=0.5;exitY=1;exitDx=0;exitDy=0;entryX=0;entryY=0;entryDx=0;entryDy=0;labelBackgroundColor=default;strokeColor=#6c8ebf;fontFamily=Helvetica;fontSize=11;fontColor=default;endArrow=none;endFill=0;fillColor=#dae8fc;" edge="1" parent="1" source="DU0gbjUOqB8wbccmuK8--93" target="DU0gbjUOqB8wbccmuK8--73">
          <mxGeometry relative="1" as="geometry" />
        </mxCell>
        <mxCell id="DU0gbjUOqB8wbccmuK8--93" value="G_Name" style="ellipse;whiteSpace=wrap;html=1;fillColor=#dae8fc;strokeColor=#6c8ebf;" vertex="1" parent="1">
          <mxGeometry x="-205.75" y="560" width="80" height="40" as="geometry" />
        </mxCell>
        <mxCell id="DU0gbjUOqB8wbccmuK8--94" style="edgeStyle=none;shape=connector;rounded=0;orthogonalLoop=1;jettySize=auto;html=1;exitX=0;exitY=0.5;exitDx=0;exitDy=0;entryX=1;entryY=0.75;entryDx=0;entryDy=0;labelBackgroundColor=default;strokeColor=#6c8ebf;fontFamily=Helvetica;fontSize=11;fontColor=default;endArrow=ERoneToMany;endFill=0;fillColor=#dae8fc;" edge="1" parent="1" source="DU0gbjUOqB8wbccmuK8--95" target="DU0gbjUOqB8wbccmuK8--261">
          <mxGeometry relative="1" as="geometry">
            <mxPoint x="-78.51999999999998" y="-432" as="targetPoint" />
          </mxGeometry>
        </mxCell>
        <mxCell id="DU0gbjUOqB8wbccmuK8--95" value="MANAGE" style="rhombus;whiteSpace=wrap;html=1;rotation=0;fillColor=#b0e3e6;strokeColor=#0e8088;" vertex="1" parent="1">
          <mxGeometry x="-105" y="62.5" width="70" height="66" as="geometry" />
        </mxCell>
        <mxCell id="DU0gbjUOqB8wbccmuK8--96" style="edgeStyle=none;shape=connector;rounded=0;orthogonalLoop=1;jettySize=auto;html=1;entryX=0.5;entryY=1;entryDx=0;entryDy=0;labelBackgroundColor=default;strokeColor=#6c8ebf;fontFamily=Helvetica;fontSize=11;fontColor=default;endArrow=ERone;endFill=0;exitX=0.5;exitY=0;exitDx=0;exitDy=0;fillColor=#dae8fc;" edge="1" parent="1" source="DU0gbjUOqB8wbccmuK8--97" target="DU0gbjUOqB8wbccmuK8--17">
          <mxGeometry relative="1" as="geometry">
            <mxPoint x="240.23260304851738" y="98.24837767976214" as="sourcePoint" />
          </mxGeometry>
        </mxCell>
        <mxCell id="DU0gbjUOqB8wbccmuK8--97" value="PAYS" style="rhombus;whiteSpace=wrap;html=1;rounded=0;fillColor=#dae8fc;strokeColor=#6c8ebf;" vertex="1" parent="1">
          <mxGeometry x="-130" y="220" width="85.48" height="73.5" as="geometry" />
        </mxCell>
        <mxCell id="DU0gbjUOqB8wbccmuK8--98" style="edgeStyle=none;shape=connector;rounded=0;orthogonalLoop=1;jettySize=auto;html=1;labelBackgroundColor=default;strokeColor=#6c8ebf;fontFamily=Helvetica;fontSize=11;fontColor=default;endArrow=ERone;endFill=0;entryX=0;entryY=1;entryDx=0;entryDy=0;fillColor=#dae8fc;" edge="1" parent="1" source="DU0gbjUOqB8wbccmuK8--99" target="DU0gbjUOqB8wbccmuK8--29">
          <mxGeometry relative="1" as="geometry">
            <mxPoint x="250" y="720" as="targetPoint" />
          </mxGeometry>
        </mxCell>
        <mxCell id="DU0gbjUOqB8wbccmuK8--99" value="Sponsors" style="rhombus;whiteSpace=wrap;html=1;fillColor=#b0e3e6;strokeColor=#0e8088;" vertex="1" parent="1">
          <mxGeometry x="169.47" y="910" width="80.53" height="70" as="geometry" />
        </mxCell>
        <mxCell id="DU0gbjUOqB8wbccmuK8--100" style="edgeStyle=orthogonalEdgeStyle;shape=connector;rounded=0;orthogonalLoop=1;jettySize=auto;html=1;labelBackgroundColor=default;strokeColor=#6c8ebf;fontFamily=Helvetica;fontSize=11;fontColor=default;endArrow=ERone;endFill=0;exitX=0.5;exitY=0;exitDx=0;exitDy=0;entryX=0.25;entryY=1;entryDx=0;entryDy=0;curved=1;fillColor=#dae8fc;" edge="1" parent="1" source="DU0gbjUOqB8wbccmuK8--101" target="DU0gbjUOqB8wbccmuK8--68">
          <mxGeometry relative="1" as="geometry">
            <mxPoint x="-760" y="910" as="sourcePoint" />
            <mxPoint x="-640" y="500" as="targetPoint" />
            <Array as="points">
              <mxPoint x="-536" y="950" />
              <mxPoint x="-750" y="950" />
              <mxPoint x="-750" y="490" />
              <mxPoint x="-530" y="490" />
            </Array>
          </mxGeometry>
        </mxCell>
        <mxCell id="DU0gbjUOqB8wbccmuK8--101" value="Sponsors" style="rhombus;whiteSpace=wrap;html=1;rotation=-45;fillColor=#b0e3e6;strokeColor=#0e8088;" vertex="1" parent="1">
          <mxGeometry x="-587.1300000000001" y="920" width="77.13" height="70" as="geometry" />
        </mxCell>
        <mxCell id="DU0gbjUOqB8wbccmuK8--102" value="G_Platfrom" style="ellipse;whiteSpace=wrap;html=1;fillColor=#dae8fc;strokeColor=#6c8ebf;" vertex="1" parent="1">
          <mxGeometry x="-15" y="540" width="80" height="40" as="geometry" />
        </mxCell>
        <mxCell id="DU0gbjUOqB8wbccmuK8--103" style="edgeStyle=none;shape=connector;rounded=0;orthogonalLoop=1;jettySize=auto;html=1;entryX=0.5;entryY=1;entryDx=0;entryDy=0;labelBackgroundColor=default;strokeColor=#6c8ebf;fontFamily=Helvetica;fontSize=11;fontColor=default;endArrow=none;endFill=0;fillColor=#dae8fc;" edge="1" parent="1" source="DU0gbjUOqB8wbccmuK8--104" target="DU0gbjUOqB8wbccmuK8--20">
          <mxGeometry relative="1" as="geometry" />
        </mxCell>
        <mxCell id="DU0gbjUOqB8wbccmuK8--104" value="C_Id" style="ellipse;whiteSpace=wrap;html=1;fillColor=#dae8fc;strokeColor=#6c8ebf;" vertex="1" parent="1">
          <mxGeometry x="-44.52" y="1246.5" width="90" height="60" as="geometry" />
        </mxCell>
        <mxCell id="DU0gbjUOqB8wbccmuK8--105" style="edgeStyle=none;shape=connector;rounded=0;orthogonalLoop=1;jettySize=auto;html=1;exitX=1;exitY=0;exitDx=0;exitDy=0;entryX=0.25;entryY=1;entryDx=0;entryDy=0;labelBackgroundColor=default;strokeColor=#6c8ebf;fontFamily=Helvetica;fontSize=11;fontColor=default;endArrow=none;endFill=0;fillColor=#dae8fc;" edge="1" parent="1" source="DU0gbjUOqB8wbccmuK8--106" target="DU0gbjUOqB8wbccmuK8--20">
          <mxGeometry relative="1" as="geometry" />
        </mxCell>
        <mxCell id="DU0gbjUOqB8wbccmuK8--106" value="C_Name" style="ellipse;whiteSpace=wrap;html=1;fillColor=#dae8fc;strokeColor=#6c8ebf;" vertex="1" parent="1">
          <mxGeometry x="-159.04999999999998" y="1275" width="90" height="50" as="geometry" />
        </mxCell>
        <mxCell id="DU0gbjUOqB8wbccmuK8--107" style="edgeStyle=none;shape=connector;rounded=0;orthogonalLoop=1;jettySize=auto;html=1;exitX=1;exitY=0;exitDx=0;exitDy=0;entryX=0.083;entryY=1;entryDx=0;entryDy=0;entryPerimeter=0;labelBackgroundColor=default;strokeColor=#6c8ebf;fontFamily=Helvetica;fontSize=11;fontColor=default;endArrow=none;endFill=0;fillColor=#dae8fc;" edge="1" parent="1" source="DU0gbjUOqB8wbccmuK8--108" target="DU0gbjUOqB8wbccmuK8--20">
          <mxGeometry relative="1" as="geometry" />
        </mxCell>
        <mxCell id="DU0gbjUOqB8wbccmuK8--108" value="C_Location" style="ellipse;whiteSpace=wrap;html=1;fillColor=#dae8fc;strokeColor=#6c8ebf;" vertex="1" parent="1">
          <mxGeometry x="-270" y="1280" width="90" height="50" as="geometry" />
        </mxCell>
        <mxCell id="DU0gbjUOqB8wbccmuK8--109" style="edgeStyle=none;shape=connector;rounded=0;orthogonalLoop=1;jettySize=auto;html=1;exitX=1;exitY=0.5;exitDx=0;exitDy=0;entryX=0;entryY=1;entryDx=0;entryDy=0;labelBackgroundColor=default;strokeColor=#6c8ebf;fontFamily=Helvetica;fontSize=11;fontColor=default;endArrow=none;endFill=0;fillColor=#dae8fc;" edge="1" parent="1" source="DU0gbjUOqB8wbccmuK8--110" target="DU0gbjUOqB8wbccmuK8--20">
          <mxGeometry relative="1" as="geometry" />
        </mxCell>
        <mxCell id="DU0gbjUOqB8wbccmuK8--110" value="C_SponsorDate" style="ellipse;whiteSpace=wrap;html=1;align=center;fillColor=#dae8fc;strokeColor=#6c8ebf;" vertex="1" parent="1">
          <mxGeometry x="-342.5" y="1210" width="105" height="50" as="geometry" />
        </mxCell>
        <mxCell id="DU0gbjUOqB8wbccmuK8--111" style="edgeStyle=none;shape=connector;rounded=0;orthogonalLoop=1;jettySize=auto;html=1;exitX=1;exitY=1;exitDx=0;exitDy=0;entryX=0;entryY=0;entryDx=0;entryDy=0;labelBackgroundColor=default;strokeColor=#6c8ebf;fontFamily=Helvetica;fontSize=11;fontColor=default;endArrow=none;endFill=0;fillColor=#dae8fc;" edge="1" parent="1" source="DU0gbjUOqB8wbccmuK8--112" target="DU0gbjUOqB8wbccmuK8--71">
          <mxGeometry relative="1" as="geometry" />
        </mxCell>
        <mxCell id="DU0gbjUOqB8wbccmuK8--112" value="T_EndingDate" style="ellipse;whiteSpace=wrap;html=1;fillColor=#dae8fc;strokeColor=#6c8ebf;" vertex="1" parent="1">
          <mxGeometry x="-720" y="600" width="90" height="40" as="geometry" />
        </mxCell>
        <mxCell id="DU0gbjUOqB8wbccmuK8--113" style="edgeStyle=none;shape=connector;rounded=0;orthogonalLoop=1;jettySize=auto;html=1;exitX=1;exitY=0.5;exitDx=0;exitDy=0;entryX=0;entryY=1;entryDx=0;entryDy=0;labelBackgroundColor=default;strokeColor=#6c8ebf;fontFamily=Helvetica;fontSize=11;fontColor=default;endArrow=none;endFill=0;fillColor=#dae8fc;" edge="1" parent="1" source="DU0gbjUOqB8wbccmuK8--114" target="DU0gbjUOqB8wbccmuK8--71">
          <mxGeometry relative="1" as="geometry" />
        </mxCell>
        <mxCell id="DU0gbjUOqB8wbccmuK8--114" value="T_Name" style="ellipse;whiteSpace=wrap;html=1;fillColor=#dae8fc;strokeColor=#6c8ebf;" vertex="1" parent="1">
          <mxGeometry x="-710" y="725" width="80" height="40" as="geometry" />
        </mxCell>
        <mxCell id="DU0gbjUOqB8wbccmuK8--115" style="edgeStyle=none;shape=connector;rounded=0;orthogonalLoop=1;jettySize=auto;html=1;exitX=1;exitY=0.5;exitDx=0;exitDy=0;entryX=0;entryY=0.5;entryDx=0;entryDy=0;labelBackgroundColor=default;strokeColor=#6c8ebf;fontFamily=Helvetica;fontSize=11;fontColor=default;endArrow=none;endFill=0;fillColor=#dae8fc;" edge="1" parent="1" source="DU0gbjUOqB8wbccmuK8--116" target="DU0gbjUOqB8wbccmuK8--20">
          <mxGeometry relative="1" as="geometry" />
        </mxCell>
        <mxCell id="DU0gbjUOqB8wbccmuK8--116" value="C_Name" style="ellipse;shape=doubleEllipse;margin=3;whiteSpace=wrap;html=1;align=center;fillColor=#dae8fc;strokeColor=#6c8ebf;" vertex="1" parent="1">
          <mxGeometry x="-305.5" y="1145" width="90" height="50" as="geometry" />
        </mxCell>
        <mxCell id="DU0gbjUOqB8wbccmuK8--117" style="edgeStyle=none;shape=connector;rounded=0;orthogonalLoop=1;jettySize=auto;html=1;exitX=1;exitY=1;exitDx=0;exitDy=0;labelBackgroundColor=default;strokeColor=#6c8ebf;fontFamily=Helvetica;fontSize=11;fontColor=default;endArrow=none;endFill=0;fillColor=#dae8fc;" edge="1" parent="1" source="DU0gbjUOqB8wbccmuK8--118" target="DU0gbjUOqB8wbccmuK8--68">
          <mxGeometry relative="1" as="geometry" />
        </mxCell>
        <mxCell id="DU0gbjUOqB8wbccmuK8--118" value="O_Phone" style="ellipse;shape=doubleEllipse;margin=3;whiteSpace=wrap;html=1;align=center;fillColor=#dae8fc;strokeColor=#6c8ebf;" vertex="1" parent="1">
          <mxGeometry x="-660" y="292" width="90" height="50" as="geometry" />
        </mxCell>
        <mxCell id="DU0gbjUOqB8wbccmuK8--119" style="edgeStyle=none;shape=connector;rounded=0;orthogonalLoop=1;jettySize=auto;html=1;exitX=1;exitY=1;exitDx=0;exitDy=0;entryX=0;entryY=0.25;entryDx=0;entryDy=0;labelBackgroundColor=default;strokeColor=#6c8ebf;fontFamily=Helvetica;fontSize=11;fontColor=default;endArrow=none;endFill=0;fillColor=#dae8fc;" edge="1" parent="1" source="DU0gbjUOqB8wbccmuK8--120" target="DU0gbjUOqB8wbccmuK8--68">
          <mxGeometry relative="1" as="geometry" />
        </mxCell>
        <mxCell id="DU0gbjUOqB8wbccmuK8--120" value="O_Name" style="ellipse;whiteSpace=wrap;html=1;fillColor=#dae8fc;strokeColor=#6c8ebf;" vertex="1" parent="1">
          <mxGeometry x="-700" y="360" width="80" height="40" as="geometry" />
        </mxCell>
        <mxCell id="DU0gbjUOqB8wbccmuK8--121" style="edgeStyle=none;shape=connector;rounded=0;orthogonalLoop=1;jettySize=auto;html=1;exitX=1;exitY=1;exitDx=0;exitDy=0;entryX=0.25;entryY=0;entryDx=0;entryDy=0;labelBackgroundColor=default;strokeColor=#6c8ebf;fontFamily=Helvetica;fontSize=11;fontColor=default;endArrow=none;endFill=0;fillColor=#dae8fc;" edge="1" parent="1" source="DU0gbjUOqB8wbccmuK8--122" target="DU0gbjUOqB8wbccmuK8--71">
          <mxGeometry relative="1" as="geometry" />
        </mxCell>
        <mxCell id="DU0gbjUOqB8wbccmuK8--122" value="T_StartingDate" style="ellipse;whiteSpace=wrap;html=1;fillColor=#dae8fc;strokeColor=#6c8ebf;" vertex="1" parent="1">
          <mxGeometry x="-670" y="550" width="90" height="40" as="geometry" />
        </mxCell>
        <mxCell id="DU0gbjUOqB8wbccmuK8--123" style="edgeStyle=none;shape=connector;rounded=0;orthogonalLoop=1;jettySize=auto;html=1;exitX=1;exitY=0.5;exitDx=0;exitDy=0;entryX=0.25;entryY=0;entryDx=0;entryDy=0;labelBackgroundColor=default;strokeColor=#6c8ebf;fontFamily=Helvetica;fontSize=11;fontColor=default;endArrow=none;endFill=0;fillColor=#dae8fc;" edge="1" parent="1" source="DU0gbjUOqB8wbccmuK8--124" target="DU0gbjUOqB8wbccmuK8--12">
          <mxGeometry relative="1" as="geometry" />
        </mxCell>
        <mxCell id="DU0gbjUOqB8wbccmuK8--124" value="M_email" style="ellipse;whiteSpace=wrap;html=1;fillColor=#dae8fc;strokeColor=#6c8ebf;" vertex="1" parent="1">
          <mxGeometry x="145" y="283" width="75" height="47" as="geometry" />
        </mxCell>
        <mxCell id="DU0gbjUOqB8wbccmuK8--125" style="edgeStyle=none;shape=connector;rounded=0;orthogonalLoop=1;jettySize=auto;html=1;exitX=0.5;exitY=1;exitDx=0;exitDy=0;entryX=0.417;entryY=0;entryDx=0;entryDy=0;entryPerimeter=0;labelBackgroundColor=default;strokeColor=#6c8ebf;fontFamily=Helvetica;fontSize=11;fontColor=default;endArrow=none;endFill=0;fillColor=#dae8fc;" edge="1" parent="1" source="DU0gbjUOqB8wbccmuK8--126" target="DU0gbjUOqB8wbccmuK8--12">
          <mxGeometry relative="1" as="geometry" />
        </mxCell>
        <mxCell id="DU0gbjUOqB8wbccmuK8--126" value="&lt;u&gt;M_Id&lt;/u&gt;" style="ellipse;whiteSpace=wrap;html=1;fillColor=#dae8fc;strokeColor=#6c8ebf;" vertex="1" parent="1">
          <mxGeometry x="202.5" y="220" width="90" height="54" as="geometry" />
        </mxCell>
        <mxCell id="DU0gbjUOqB8wbccmuK8--127" style="edgeStyle=none;shape=connector;rounded=0;orthogonalLoop=1;jettySize=auto;html=1;exitX=0.5;exitY=1;exitDx=0;exitDy=0;entryX=0.5;entryY=0;entryDx=0;entryDy=0;labelBackgroundColor=default;strokeColor=#6c8ebf;fontFamily=Helvetica;fontSize=11;fontColor=default;endArrow=none;endFill=0;fillColor=#dae8fc;" edge="1" parent="1" source="DU0gbjUOqB8wbccmuK8--128" target="DU0gbjUOqB8wbccmuK8--12">
          <mxGeometry relative="1" as="geometry" />
        </mxCell>
        <mxCell id="DU0gbjUOqB8wbccmuK8--128" value="M_Hiredate" style="ellipse;whiteSpace=wrap;html=1;fillColor=#dae8fc;strokeColor=#6c8ebf;" vertex="1" parent="1">
          <mxGeometry x="307.5" y="229" width="90" height="54" as="geometry" />
        </mxCell>
        <mxCell id="DU0gbjUOqB8wbccmuK8--129" style="edgeStyle=none;shape=connector;rounded=0;orthogonalLoop=1;jettySize=auto;html=1;exitX=0;exitY=0.5;exitDx=0;exitDy=0;entryX=1;entryY=0;entryDx=0;entryDy=0;labelBackgroundColor=default;strokeColor=#6c8ebf;fontFamily=Helvetica;fontSize=11;fontColor=default;endArrow=none;endFill=0;fillColor=#dae8fc;" edge="1" parent="1" source="DU0gbjUOqB8wbccmuK8--130" target="DU0gbjUOqB8wbccmuK8--12">
          <mxGeometry relative="1" as="geometry" />
        </mxCell>
        <mxCell id="DU0gbjUOqB8wbccmuK8--130" value="M_Salary" style="ellipse;whiteSpace=wrap;html=1;fillColor=#dae8fc;strokeColor=#6c8ebf;" vertex="1" parent="1">
          <mxGeometry x="415" y="330" width="90" height="54" as="geometry" />
        </mxCell>
        <mxCell id="DU0gbjUOqB8wbccmuK8--131" style="edgeStyle=none;shape=connector;rounded=0;orthogonalLoop=1;jettySize=auto;html=1;exitX=1;exitY=1;exitDx=0;exitDy=0;entryX=0;entryY=0;entryDx=0;entryDy=0;labelBackgroundColor=default;strokeColor=#6c8ebf;fontFamily=Helvetica;fontSize=11;fontColor=default;endArrow=none;endFill=0;fillColor=#dae8fc;" edge="1" parent="1" source="DU0gbjUOqB8wbccmuK8--132" target="DU0gbjUOqB8wbccmuK8--12">
          <mxGeometry relative="1" as="geometry" />
        </mxCell>
        <mxCell id="DU0gbjUOqB8wbccmuK8--132" value="M_name" style="ellipse;whiteSpace=wrap;html=1;fillColor=#dae8fc;strokeColor=#6c8ebf;" vertex="1" parent="1">
          <mxGeometry x="130" y="350" width="80" height="40" as="geometry" />
        </mxCell>
        <mxCell id="DU0gbjUOqB8wbccmuK8--133" style="edgeStyle=none;shape=connector;rounded=0;orthogonalLoop=1;jettySize=auto;html=1;exitX=0;exitY=1;exitDx=0;exitDy=0;entryX=0.677;entryY=0.009;entryDx=0;entryDy=0;entryPerimeter=0;labelBackgroundColor=default;strokeColor=#6c8ebf;fontFamily=Helvetica;fontSize=11;fontColor=default;endArrow=none;endFill=0;fillColor=#dae8fc;" edge="1" parent="1" source="DU0gbjUOqB8wbccmuK8--134" target="DU0gbjUOqB8wbccmuK8--12">
          <mxGeometry relative="1" as="geometry" />
        </mxCell>
        <mxCell id="DU0gbjUOqB8wbccmuK8--134" value="M_Phone" style="ellipse;shape=doubleEllipse;margin=3;whiteSpace=wrap;html=1;align=center;fillColor=#dae8fc;strokeColor=#6c8ebf;" vertex="1" parent="1">
          <mxGeometry x="402.5" y="260" width="90" height="50" as="geometry" />
        </mxCell>
        <mxCell id="DU0gbjUOqB8wbccmuK8--135" value="Sm_Name" style="ellipse;whiteSpace=wrap;html=1;fillColor=#dae8fc;strokeColor=#6c8ebf;" vertex="1" parent="1">
          <mxGeometry x="325.75" y="-56" width="80" height="40" as="geometry" />
        </mxCell>
        <mxCell id="DU0gbjUOqB8wbccmuK8--136" value="Sm_email" style="ellipse;whiteSpace=wrap;html=1;fillColor=#dae8fc;strokeColor=#6c8ebf;" vertex="1" parent="1">
          <mxGeometry x="340" y="29" width="75" height="47" as="geometry" />
        </mxCell>
        <mxCell id="DU0gbjUOqB8wbccmuK8--137" value="&lt;u&gt;Sm_Id&lt;/u&gt;" style="ellipse;whiteSpace=wrap;html=1;fillColor=#dae8fc;strokeColor=#6c8ebf;" vertex="1" parent="1">
          <mxGeometry x="315.75" y="129" width="90" height="54" as="geometry" />
        </mxCell>
        <mxCell id="DU0gbjUOqB8wbccmuK8--138" style="edgeStyle=none;shape=connector;rounded=0;orthogonalLoop=1;jettySize=auto;html=1;exitX=1;exitY=1;exitDx=0;exitDy=0;entryX=0;entryY=0.25;entryDx=0;entryDy=0;labelBackgroundColor=default;strokeColor=#6c8ebf;fontFamily=Helvetica;fontSize=11;fontColor=default;endArrow=none;endFill=0;fillColor=#dae8fc;" edge="1" parent="1" source="DU0gbjUOqB8wbccmuK8--139" target="DU0gbjUOqB8wbccmuK8--17">
          <mxGeometry relative="1" as="geometry" />
        </mxCell>
        <mxCell id="DU0gbjUOqB8wbccmuK8--139" value="Sm_Hiredate" style="ellipse;whiteSpace=wrap;html=1;fillColor=#dae8fc;strokeColor=#6c8ebf;" vertex="1" parent="1">
          <mxGeometry x="48.33" y="-110" width="90" height="54" as="geometry" />
        </mxCell>
        <mxCell id="DU0gbjUOqB8wbccmuK8--140" style="edgeStyle=none;shape=connector;rounded=0;orthogonalLoop=1;jettySize=auto;html=1;exitX=1;exitY=1;exitDx=0;exitDy=0;entryX=0;entryY=0.75;entryDx=0;entryDy=0;labelBackgroundColor=default;strokeColor=#6c8ebf;fontFamily=Helvetica;fontSize=11;fontColor=default;endArrow=none;endFill=0;fillColor=#dae8fc;" edge="1" parent="1" source="DU0gbjUOqB8wbccmuK8--141" target="DU0gbjUOqB8wbccmuK8--17">
          <mxGeometry relative="1" as="geometry" />
        </mxCell>
        <mxCell id="DU0gbjUOqB8wbccmuK8--141" value="Sm_Phone" style="ellipse;shape=doubleEllipse;margin=3;whiteSpace=wrap;html=1;align=center;fillColor=#dae8fc;strokeColor=#6c8ebf;" vertex="1" parent="1">
          <mxGeometry x="16.5" y="-32.75" width="90" height="50" as="geometry" />
        </mxCell>
        <mxCell id="DU0gbjUOqB8wbccmuK8--142" style="edgeStyle=none;shape=connector;rounded=0;orthogonalLoop=1;jettySize=auto;html=1;exitX=0.5;exitY=1;exitDx=0;exitDy=0;entryX=0.25;entryY=0;entryDx=0;entryDy=0;labelBackgroundColor=default;strokeColor=#6c8ebf;fontFamily=Helvetica;fontSize=11;fontColor=default;endArrow=none;endFill=0;fillColor=#dae8fc;" edge="1" parent="1" source="DU0gbjUOqB8wbccmuK8--143" target="DU0gbjUOqB8wbccmuK8--17">
          <mxGeometry relative="1" as="geometry" />
        </mxCell>
        <mxCell id="DU0gbjUOqB8wbccmuK8--143" value="Sm_Salary" style="ellipse;whiteSpace=wrap;html=1;fillColor=#dae8fc;strokeColor=#6c8ebf;" vertex="1" parent="1">
          <mxGeometry x="159.47" y="-130" width="90" height="54" as="geometry" />
        </mxCell>
        <mxCell id="DU0gbjUOqB8wbccmuK8--144" style="edgeStyle=none;shape=connector;rounded=0;orthogonalLoop=1;jettySize=auto;html=1;entryX=0.621;entryY=1.015;entryDx=0;entryDy=0;labelBackgroundColor=default;strokeColor=#6c8ebf;fontFamily=Helvetica;fontSize=11;fontColor=default;endArrow=none;endFill=0;entryPerimeter=0;exitX=0.5;exitY=0;exitDx=0;exitDy=0;fillColor=#dae8fc;" edge="1" parent="1" source="DU0gbjUOqB8wbccmuK8--231" target="DU0gbjUOqB8wbccmuK8--31">
          <mxGeometry relative="1" as="geometry">
            <mxPoint x="598.047229334974" y="1286.9229549004049" as="sourcePoint" />
          </mxGeometry>
        </mxCell>
        <mxCell id="DU0gbjUOqB8wbccmuK8--145" style="edgeStyle=none;shape=connector;rounded=0;orthogonalLoop=1;jettySize=auto;html=1;exitX=1;exitY=0.5;exitDx=0;exitDy=0;entryX=0;entryY=0.75;entryDx=0;entryDy=0;labelBackgroundColor=default;strokeColor=#6c8ebf;fontFamily=Helvetica;fontSize=11;fontColor=default;endArrow=none;endFill=0;fillColor=#dae8fc;" edge="1" parent="1" source="DU0gbjUOqB8wbccmuK8--146" target="DU0gbjUOqB8wbccmuK8--68">
          <mxGeometry relative="1" as="geometry" />
        </mxCell>
        <mxCell id="DU0gbjUOqB8wbccmuK8--146" value="O_Picture" style="ellipse;whiteSpace=wrap;html=1;fontFamily=Helvetica;fontSize=11;fillColor=#dae8fc;strokeColor=#6c8ebf;" vertex="1" parent="1">
          <mxGeometry x="-697.12" y="425" width="90" height="45" as="geometry" />
        </mxCell>
        <mxCell id="DU0gbjUOqB8wbccmuK8--147" style="edgeStyle=none;shape=connector;rounded=0;orthogonalLoop=1;jettySize=auto;html=1;exitX=0.5;exitY=1;exitDx=0;exitDy=0;entryX=0.75;entryY=0;entryDx=0;entryDy=0;labelBackgroundColor=default;strokeColor=#6c8ebf;fontFamily=Helvetica;fontSize=11;fontColor=default;endArrow=none;endFill=0;fillColor=#dae8fc;" edge="1" parent="1" source="DU0gbjUOqB8wbccmuK8--148" target="DU0gbjUOqB8wbccmuK8--1">
          <mxGeometry relative="1" as="geometry" />
        </mxCell>
        <mxCell id="DU0gbjUOqB8wbccmuK8--148" value="A_Picture" style="ellipse;whiteSpace=wrap;html=1;fontFamily=Helvetica;fontSize=11;fillColor=#dae8fc;strokeColor=#6c8ebf;" vertex="1" parent="1">
          <mxGeometry x="670" y="229" width="90" height="45" as="geometry" />
        </mxCell>
        <mxCell id="DU0gbjUOqB8wbccmuK8--149" style="edgeStyle=none;shape=connector;rounded=0;orthogonalLoop=1;jettySize=auto;html=1;exitX=0;exitY=1;exitDx=0;exitDy=0;entryX=0.618;entryY=0.009;entryDx=0;entryDy=0;entryPerimeter=0;labelBackgroundColor=default;strokeColor=#6c8ebf;fontFamily=Helvetica;fontSize=11;fontColor=default;endArrow=none;endFill=0;fillColor=#dae8fc;" edge="1" parent="1" source="DU0gbjUOqB8wbccmuK8--150" target="DU0gbjUOqB8wbccmuK8--12">
          <mxGeometry relative="1" as="geometry" />
        </mxCell>
        <mxCell id="DU0gbjUOqB8wbccmuK8--150" value="M_Picture" style="ellipse;whiteSpace=wrap;html=1;fontFamily=Helvetica;fontSize=11;fillColor=#dae8fc;strokeColor=#6c8ebf;" vertex="1" parent="1">
          <mxGeometry x="407.5" y="199" width="90" height="45" as="geometry" />
        </mxCell>
        <mxCell id="DU0gbjUOqB8wbccmuK8--151" style="edgeStyle=none;shape=connector;rounded=0;orthogonalLoop=1;jettySize=auto;html=1;exitX=1;exitY=0;exitDx=0;exitDy=0;entryX=0.25;entryY=1;entryDx=0;entryDy=0;labelBackgroundColor=default;strokeColor=#6c8ebf;fontFamily=Helvetica;fontSize=11;fontColor=default;endArrow=none;endFill=0;fillColor=#dae8fc;" edge="1" parent="1" source="DU0gbjUOqB8wbccmuK8--152" target="DU0gbjUOqB8wbccmuK8--71">
          <mxGeometry relative="1" as="geometry" />
        </mxCell>
        <mxCell id="DU0gbjUOqB8wbccmuK8--152" value="T_Pricepool" style="ellipse;whiteSpace=wrap;html=1;fillColor=#dae8fc;strokeColor=#6c8ebf;" vertex="1" parent="1">
          <mxGeometry x="-697.12" y="790" width="80" height="40" as="geometry" />
        </mxCell>
        <mxCell id="DU0gbjUOqB8wbccmuK8--153" style="edgeStyle=none;shape=connector;rounded=0;orthogonalLoop=1;jettySize=auto;html=1;exitX=0;exitY=1;exitDx=0;exitDy=0;entryX=1;entryY=0.25;entryDx=0;entryDy=0;labelBackgroundColor=default;strokeColor=#6c8ebf;fontFamily=Helvetica;fontSize=11;fontColor=default;endArrow=none;endFill=0;fillColor=#dae8fc;" edge="1" parent="1" source="DU0gbjUOqB8wbccmuK8--154" target="DU0gbjUOqB8wbccmuK8--73">
          <mxGeometry relative="1" as="geometry" />
        </mxCell>
        <mxCell id="DU0gbjUOqB8wbccmuK8--154" value="&lt;font style=&quot;font-size: 14px;&quot;&gt;G_Icon&lt;/font&gt;" style="ellipse;whiteSpace=wrap;html=1;fontFamily=Helvetica;fontSize=11;fillColor=#dae8fc;strokeColor=#6c8ebf;" vertex="1" parent="1">
          <mxGeometry x="58.33" y="620" width="90" height="45" as="geometry" />
        </mxCell>
        <mxCell id="DU0gbjUOqB8wbccmuK8--155" style="edgeStyle=none;shape=connector;rounded=0;orthogonalLoop=1;jettySize=auto;html=1;exitX=0.5;exitY=0;exitDx=0;exitDy=0;entryX=0.75;entryY=1;entryDx=0;entryDy=0;labelBackgroundColor=default;strokeColor=#6c8ebf;fontFamily=Helvetica;fontSize=11;fontColor=default;endArrow=none;endFill=0;fillColor=#dae8fc;" edge="1" parent="1" source="DU0gbjUOqB8wbccmuK8--156" target="DU0gbjUOqB8wbccmuK8--29">
          <mxGeometry relative="1" as="geometry" />
        </mxCell>
        <mxCell id="DU0gbjUOqB8wbccmuK8--156" value="&lt;font style=&quot;font-size: 13px;&quot;&gt;Tm_Icon&lt;/font&gt;" style="ellipse;whiteSpace=wrap;html=1;fontFamily=Helvetica;fontSize=11;fillColor=#dae8fc;strokeColor=#6c8ebf;" vertex="1" parent="1">
          <mxGeometry x="578.33" y="820" width="90" height="45" as="geometry" />
        </mxCell>
        <mxCell id="DU0gbjUOqB8wbccmuK8--157" style="edgeStyle=none;shape=connector;rounded=0;orthogonalLoop=1;jettySize=auto;html=1;exitX=0.5;exitY=1;exitDx=0;exitDy=0;entryX=0.657;entryY=0.023;entryDx=0;entryDy=0;entryPerimeter=0;labelBackgroundColor=default;strokeColor=#6c8ebf;fontFamily=Helvetica;fontSize=11;fontColor=default;endArrow=none;endFill=0;fillColor=#dae8fc;" edge="1" parent="1" source="DU0gbjUOqB8wbccmuK8--158" target="DU0gbjUOqB8wbccmuK8--17">
          <mxGeometry relative="1" as="geometry" />
        </mxCell>
        <mxCell id="DU0gbjUOqB8wbccmuK8--158" value="Sm_Picture" style="ellipse;whiteSpace=wrap;html=1;fontFamily=Helvetica;fontSize=11;fillColor=#dae8fc;strokeColor=#6c8ebf;" vertex="1" parent="1">
          <mxGeometry x="259.75" y="-121" width="90" height="45" as="geometry" />
        </mxCell>
        <mxCell id="DU0gbjUOqB8wbccmuK8--159" style="edgeStyle=none;shape=connector;rounded=0;orthogonalLoop=1;jettySize=auto;html=1;exitX=1;exitY=0;exitDx=0;exitDy=0;entryX=0.25;entryY=1;entryDx=0;entryDy=0;labelBackgroundColor=default;strokeColor=#6c8ebf;fontFamily=Helvetica;fontSize=11;fontColor=default;endArrow=none;endFill=0;fillColor=#dae8fc;" edge="1" parent="1" source="DU0gbjUOqB8wbccmuK8--160" target="DU0gbjUOqB8wbccmuK8--73">
          <mxGeometry relative="1" as="geometry" />
        </mxCell>
        <mxCell id="DU0gbjUOqB8wbccmuK8--160" value="G_Pricepool" style="ellipse;whiteSpace=wrap;html=1;align=center;dashed=1;fontFamily=Helvetica;fontSize=11;fillColor=#dae8fc;strokeColor=#6c8ebf;" vertex="1" parent="1">
          <mxGeometry x="-215.5" y="750" width="100" height="40" as="geometry" />
        </mxCell>
        <mxCell id="DU0gbjUOqB8wbccmuK8--161" value="F_Account number" style="ellipse;whiteSpace=wrap;html=1;fillColor=#dae8fc;strokeColor=#6c8ebf;" vertex="1" parent="1">
          <mxGeometry x="-48.50000000000003" y="293.5" width="75" height="47" as="geometry" />
        </mxCell>
        <mxCell id="DU0gbjUOqB8wbccmuK8--162" value="F_Balance" style="ellipse;whiteSpace=wrap;html=1;fillColor=#dae8fc;strokeColor=#6c8ebf;" vertex="1" parent="1">
          <mxGeometry x="-7.42" y="364" width="80" height="40" as="geometry" />
        </mxCell>
        <mxCell id="DU0gbjUOqB8wbccmuK8--163" style="edgeStyle=none;shape=connector;rounded=0;orthogonalLoop=1;jettySize=auto;html=1;exitX=0.5;exitY=0;exitDx=0;exitDy=0;entryX=0.25;entryY=1;entryDx=0;entryDy=0;labelBackgroundColor=default;strokeColor=#6c8ebf;fontFamily=Helvetica;fontSize=11;fontColor=default;endArrow=none;endFill=0;fillColor=#dae8fc;" edge="1" parent="1" source="DU0gbjUOqB8wbccmuK8--164" target="DU0gbjUOqB8wbccmuK8--29">
          <mxGeometry relative="1" as="geometry" />
        </mxCell>
        <mxCell id="DU0gbjUOqB8wbccmuK8--164" value="&lt;font style=&quot;font-size: 14px;&quot;&gt;Tm_Earning&lt;/font&gt;" style="ellipse;whiteSpace=wrap;html=1;fontFamily=Helvetica;fontSize=11;dashed=1;fillColor=#dae8fc;strokeColor=#6c8ebf;" vertex="1" parent="1">
          <mxGeometry x="460" y="800" width="90" height="45" as="geometry" />
        </mxCell>
        <mxCell id="DU0gbjUOqB8wbccmuK8--175" style="edgeStyle=none;shape=connector;rounded=0;orthogonalLoop=1;jettySize=auto;html=1;exitX=0.438;exitY=0.018;exitDx=0;exitDy=0;entryX=0.448;entryY=1.071;entryDx=0;entryDy=0;entryPerimeter=0;labelBackgroundColor=default;strokeColor=#6c8ebf;fontFamily=Helvetica;fontSize=11;fontColor=default;endArrow=none;endFill=0;exitPerimeter=0;fillColor=#dae8fc;" edge="1" parent="1" source="DU0gbjUOqB8wbccmuK8--176" target="DU0gbjUOqB8wbccmuK8--31">
          <mxGeometry relative="1" as="geometry" />
        </mxCell>
        <mxCell id="DU0gbjUOqB8wbccmuK8--176" value="P_Salary" style="ellipse;whiteSpace=wrap;html=1;fillColor=#dae8fc;strokeColor=#6c8ebf;" vertex="1" parent="1">
          <mxGeometry x="480.53" y="1285" width="69.47" height="40" as="geometry" />
        </mxCell>
        <mxCell id="DU0gbjUOqB8wbccmuK8--177" style="edgeStyle=none;shape=connector;rounded=0;orthogonalLoop=1;jettySize=auto;html=1;exitX=0.5;exitY=0;exitDx=0;exitDy=0;entryX=0.5;entryY=1;entryDx=0;entryDy=0;labelBackgroundColor=default;strokeColor=#6c8ebf;fontFamily=Helvetica;fontSize=11;fontColor=default;endArrow=none;endFill=0;fillColor=#dae8fc;" edge="1" parent="1" source="DU0gbjUOqB8wbccmuK8--178" target="DU0gbjUOqB8wbccmuK8--181">
          <mxGeometry relative="1" as="geometry" />
        </mxCell>
        <mxCell id="DU0gbjUOqB8wbccmuK8--178" value="Record" style="rounded=0;whiteSpace=wrap;html=1;fontFamily=Helvetica;fontSize=11;fillColor=#ffe6cc;strokeColor=#d79b00;" vertex="1" parent="1">
          <mxGeometry x="-138.51999999999995" y="885" width="107.42" height="55" as="geometry" />
        </mxCell>
        <mxCell id="DU0gbjUOqB8wbccmuK8--179" style="edgeStyle=none;shape=connector;rounded=0;orthogonalLoop=1;jettySize=auto;html=1;exitX=0.5;exitY=1;exitDx=0;exitDy=0;entryX=0;entryY=0.5;entryDx=0;entryDy=0;labelBackgroundColor=default;strokeColor=#6c8ebf;fontFamily=Helvetica;fontSize=11;fontColor=default;endArrow=ERoneToMany;endFill=0;startArrow=none;startFill=0;fillColor=#dae8fc;" edge="1" parent="1" source="DU0gbjUOqB8wbccmuK8--180" target="DU0gbjUOqB8wbccmuK8--178">
          <mxGeometry relative="1" as="geometry" />
        </mxCell>
        <mxCell id="DU0gbjUOqB8wbccmuK8--180" value="HAS" style="rhombus;whiteSpace=wrap;html=1;rotation=-45;fillColor=#b0e3e6;strokeColor=#0e8088;" vertex="1" parent="1">
          <mxGeometry x="-420" y="782.5" width="80" height="80" as="geometry" />
        </mxCell>
        <mxCell id="DU0gbjUOqB8wbccmuK8--181" value="&lt;u&gt;R_Id&lt;/u&gt;" style="ellipse;whiteSpace=wrap;html=1;fillColor=#dae8fc;strokeColor=#6c8ebf;" vertex="1" parent="1">
          <mxGeometry x="-87.41999999999999" y="800" width="80" height="45" as="geometry" />
        </mxCell>
        <mxCell id="DU0gbjUOqB8wbccmuK8--182" style="edgeStyle=none;shape=connector;rounded=0;orthogonalLoop=1;jettySize=auto;html=1;exitX=0.5;exitY=0;exitDx=0;exitDy=0;entryX=0.5;entryY=1;entryDx=0;entryDy=0;labelBackgroundColor=default;strokeColor=#6c8ebf;fontFamily=Helvetica;fontSize=11;fontColor=default;endArrow=none;endFill=0;fillColor=#dae8fc;" edge="1" parent="1" source="DU0gbjUOqB8wbccmuK8--183" target="DU0gbjUOqB8wbccmuK8--178">
          <mxGeometry relative="1" as="geometry" />
        </mxCell>
        <mxCell id="DU0gbjUOqB8wbccmuK8--183" value="&lt;u style=&quot;border-color: var(--border-color);&quot;&gt;R_&lt;/u&gt;Date" style="ellipse;whiteSpace=wrap;html=1;fillColor=#dae8fc;strokeColor=#6c8ebf;" vertex="1" parent="1">
          <mxGeometry x="-160.00000000000003" y="990" width="80" height="40" as="geometry" />
        </mxCell>
        <mxCell id="DU0gbjUOqB8wbccmuK8--184" style="edgeStyle=none;shape=connector;rounded=0;orthogonalLoop=1;jettySize=auto;html=1;exitX=0;exitY=0.5;exitDx=0;exitDy=0;entryX=0.829;entryY=1.011;entryDx=0;entryDy=0;entryPerimeter=0;labelBackgroundColor=default;strokeColor=#6c8ebf;fontFamily=Helvetica;fontSize=11;fontColor=default;endArrow=none;endFill=0;fillColor=#dae8fc;" edge="1" parent="1" source="DU0gbjUOqB8wbccmuK8--185" target="DU0gbjUOqB8wbccmuK8--178">
          <mxGeometry relative="1" as="geometry" />
        </mxCell>
        <mxCell id="DU0gbjUOqB8wbccmuK8--185" value="&lt;u style=&quot;border-color: var(--border-color);&quot;&gt;R_&lt;/u&gt;Pricepool" style="ellipse;whiteSpace=wrap;html=1;fillColor=#dae8fc;strokeColor=#6c8ebf;" vertex="1" parent="1">
          <mxGeometry x="-15" y="970" width="80" height="40" as="geometry" />
        </mxCell>
        <mxCell id="DU0gbjUOqB8wbccmuK8--186" style="edgeStyle=none;shape=connector;rounded=0;orthogonalLoop=1;jettySize=auto;html=1;exitX=0;exitY=0.5;exitDx=0;exitDy=0;entryX=1.023;entryY=0.876;entryDx=0;entryDy=0;entryPerimeter=0;labelBackgroundColor=default;strokeColor=#6c8ebf;fontFamily=Helvetica;fontSize=11;fontColor=default;endArrow=none;endFill=0;fillColor=#dae8fc;" edge="1" parent="1" source="DU0gbjUOqB8wbccmuK8--187" target="DU0gbjUOqB8wbccmuK8--73">
          <mxGeometry relative="1" as="geometry" />
        </mxCell>
        <mxCell id="DU0gbjUOqB8wbccmuK8--187" value="G_Genre" style="ellipse;whiteSpace=wrap;html=1;fillColor=#dae8fc;strokeColor=#6c8ebf;" vertex="1" parent="1">
          <mxGeometry x="58.33" y="710" width="80" height="40" as="geometry" />
        </mxCell>
        <mxCell id="DU0gbjUOqB8wbccmuK8--188" style="edgeStyle=none;shape=connector;rounded=0;orthogonalLoop=1;jettySize=auto;html=1;exitX=1;exitY=1;exitDx=0;exitDy=0;entryX=-0.015;entryY=0.297;entryDx=0;entryDy=0;entryPerimeter=0;labelBackgroundColor=default;strokeColor=#6c8ebf;fontFamily=Helvetica;fontSize=11;fontColor=default;endArrow=none;endFill=0;fillColor=#dae8fc;" edge="1" parent="1" source="DU0gbjUOqB8wbccmuK8--189" target="DU0gbjUOqB8wbccmuK8--73">
          <mxGeometry relative="1" as="geometry" />
        </mxCell>
        <mxCell id="DU0gbjUOqB8wbccmuK8--189" value="G_ReleaseDate" style="ellipse;whiteSpace=wrap;html=1;fillColor=#dae8fc;strokeColor=#6c8ebf;" vertex="1" parent="1">
          <mxGeometry x="-270" y="610" width="90" height="40" as="geometry" />
        </mxCell>
        <mxCell id="DU0gbjUOqB8wbccmuK8--190" style="edgeStyle=none;shape=connector;rounded=0;orthogonalLoop=1;jettySize=auto;html=1;exitX=0;exitY=1;exitDx=0;exitDy=0;entryX=0.997;entryY=0.103;entryDx=0;entryDy=0;entryPerimeter=0;labelBackgroundColor=default;strokeColor=#6c8ebf;fontFamily=Helvetica;fontSize=11;fontColor=default;endArrow=none;endFill=0;fillColor=#dae8fc;" edge="1" parent="1" source="DU0gbjUOqB8wbccmuK8--191" target="DU0gbjUOqB8wbccmuK8--73">
          <mxGeometry relative="1" as="geometry" />
        </mxCell>
        <mxCell id="DU0gbjUOqB8wbccmuK8--191" value="G_Publisher" style="ellipse;whiteSpace=wrap;html=1;fillColor=#dae8fc;strokeColor=#6c8ebf;" vertex="1" parent="1">
          <mxGeometry x="53.33" y="575" width="70" height="35" as="geometry" />
        </mxCell>
        <mxCell id="DU0gbjUOqB8wbccmuK8--192" style="edgeStyle=none;shape=connector;rounded=0;orthogonalLoop=1;jettySize=auto;html=1;exitX=1;exitY=0;exitDx=0;exitDy=0;entryX=0.104;entryY=1.036;entryDx=0;entryDy=0;entryPerimeter=0;labelBackgroundColor=default;strokeColor=#6c8ebf;fontFamily=Helvetica;fontSize=11;fontColor=default;endArrow=none;endFill=0;fillColor=#dae8fc;" edge="1" parent="1" source="DU0gbjUOqB8wbccmuK8--193" target="DU0gbjUOqB8wbccmuK8--31">
          <mxGeometry relative="1" as="geometry" />
        </mxCell>
        <mxCell id="DU0gbjUOqB8wbccmuK8--193" value="P_Earing" style="ellipse;whiteSpace=wrap;html=1;fillColor=#dae8fc;strokeColor=#6c8ebf;" vertex="1" parent="1">
          <mxGeometry x="220" y="1245" width="124.73" height="45" as="geometry" />
        </mxCell>
        <mxCell id="DU0gbjUOqB8wbccmuK8--194" style="edgeStyle=none;shape=connector;rounded=0;orthogonalLoop=1;jettySize=auto;html=1;exitX=1;exitY=0;exitDx=0;exitDy=0;entryX=-0.007;entryY=0.846;entryDx=0;entryDy=0;entryPerimeter=0;labelBackgroundColor=default;strokeColor=#6c8ebf;fontFamily=Helvetica;fontSize=11;fontColor=default;endArrow=none;endFill=0;fillColor=#dae8fc;" edge="1" parent="1" source="DU0gbjUOqB8wbccmuK8--195" target="DU0gbjUOqB8wbccmuK8--31">
          <mxGeometry relative="1" as="geometry" />
        </mxCell>
        <mxCell id="DU0gbjUOqB8wbccmuK8--195" value="P_PlayHoure" style="ellipse;whiteSpace=wrap;html=1;fillColor=#dae8fc;strokeColor=#6c8ebf;" vertex="1" parent="1">
          <mxGeometry x="250" y="1160" width="94.2" height="45" as="geometry" />
        </mxCell>
        <mxCell id="DU0gbjUOqB8wbccmuK8--196" style="edgeStyle=none;shape=connector;rounded=0;orthogonalLoop=1;jettySize=auto;html=1;exitX=0;exitY=1;exitDx=0;exitDy=0;entryX=1.014;entryY=0.379;entryDx=0;entryDy=0;entryPerimeter=0;labelBackgroundColor=default;strokeColor=#6c8ebf;fontFamily=Helvetica;fontSize=11;fontColor=default;endArrow=none;endFill=0;fillColor=#dae8fc;" edge="1" parent="1" source="DU0gbjUOqB8wbccmuK8--200" target="DU0gbjUOqB8wbccmuK8--204">
          <mxGeometry relative="1" as="geometry" />
        </mxCell>
        <mxCell id="DU0gbjUOqB8wbccmuK8--197" style="edgeStyle=none;shape=connector;rounded=0;orthogonalLoop=1;jettySize=auto;html=1;exitX=0.3;exitY=0.958;exitDx=0;exitDy=0;entryX=1;entryY=0;entryDx=0;entryDy=0;labelBackgroundColor=default;strokeColor=#6c8ebf;fontFamily=Helvetica;fontSize=11;fontColor=default;endArrow=none;endFill=0;exitPerimeter=0;fillColor=#dae8fc;" edge="1" parent="1" source="DU0gbjUOqB8wbccmuK8--200" target="DU0gbjUOqB8wbccmuK8--203">
          <mxGeometry relative="1" as="geometry" />
        </mxCell>
        <mxCell id="DU0gbjUOqB8wbccmuK8--198" style="edgeStyle=none;shape=connector;rounded=0;orthogonalLoop=1;jettySize=auto;html=1;exitX=0.5;exitY=1;exitDx=0;exitDy=0;entryX=0.5;entryY=0;entryDx=0;entryDy=0;labelBackgroundColor=default;strokeColor=#6c8ebf;fontFamily=Helvetica;fontSize=11;fontColor=default;endArrow=none;endFill=0;fillColor=#dae8fc;" edge="1" parent="1" source="DU0gbjUOqB8wbccmuK8--200" target="DU0gbjUOqB8wbccmuK8--202">
          <mxGeometry relative="1" as="geometry" />
        </mxCell>
        <mxCell id="DU0gbjUOqB8wbccmuK8--199" style="edgeStyle=none;shape=connector;rounded=0;orthogonalLoop=1;jettySize=auto;html=1;exitX=1;exitY=1;exitDx=0;exitDy=0;entryX=0.271;entryY=-0.034;entryDx=0;entryDy=0;entryPerimeter=0;labelBackgroundColor=default;strokeColor=#6c8ebf;fontFamily=Helvetica;fontSize=11;fontColor=default;endArrow=none;endFill=0;fillColor=#dae8fc;" edge="1" parent="1" source="DU0gbjUOqB8wbccmuK8--200" target="DU0gbjUOqB8wbccmuK8--201">
          <mxGeometry relative="1" as="geometry" />
        </mxCell>
        <mxCell id="DU0gbjUOqB8wbccmuK8--200" value="P_Links" style="ellipse;whiteSpace=wrap;html=1;fillColor=#dae8fc;strokeColor=#6c8ebf;" vertex="1" parent="1">
          <mxGeometry x="375.83000000000004" y="1252.5" width="90" height="54" as="geometry" />
        </mxCell>
        <mxCell id="DU0gbjUOqB8wbccmuK8--201" value="Youtube" style="ellipse;whiteSpace=wrap;html=1;fillColor=#dae8fc;strokeColor=#6c8ebf;" vertex="1" parent="1">
          <mxGeometry x="488.06" y="1365" width="70.53" height="35" as="geometry" />
        </mxCell>
        <mxCell id="DU0gbjUOqB8wbccmuK8--202" value="Twitter" style="ellipse;whiteSpace=wrap;html=1;fillColor=#dae8fc;strokeColor=#6c8ebf;" vertex="1" parent="1">
          <mxGeometry x="388.33000000000004" y="1370" width="80.53" height="37.5" as="geometry" />
        </mxCell>
        <mxCell id="DU0gbjUOqB8wbccmuK8--203" value="Instagram" style="ellipse;whiteSpace=wrap;html=1;fillColor=#dae8fc;strokeColor=#6c8ebf;" vertex="1" parent="1">
          <mxGeometry x="302.5" y="1370" width="71.94" height="30" as="geometry" />
        </mxCell>
        <mxCell id="DU0gbjUOqB8wbccmuK8--204" value="Facebook" style="ellipse;whiteSpace=wrap;html=1;fillColor=#dae8fc;strokeColor=#6c8ebf;" vertex="1" parent="1">
          <mxGeometry x="283.22" y="1315" width="66.78" height="40" as="geometry" />
        </mxCell>
        <mxCell id="DU0gbjUOqB8wbccmuK8--230" value="Winning" style="ellipse;shape=doubleEllipse;margin=3;whiteSpace=wrap;html=1;align=center;fontFamily=Helvetica;fontSize=11;fillColor=#dae8fc;strokeColor=#6c8ebf;" vertex="1" parent="1">
          <mxGeometry x="374.44" y="580" width="100" height="40" as="geometry" />
        </mxCell>
        <mxCell id="DU0gbjUOqB8wbccmuK8--231" value="P_Pictures" style="ellipse;shape=doubleEllipse;margin=3;whiteSpace=wrap;html=1;align=center;fontFamily=Helvetica;fontSize=11;fillColor=#dae8fc;strokeColor=#6c8ebf;" vertex="1" parent="1">
          <mxGeometry x="590" y="1295" width="100" height="40" as="geometry" />
        </mxCell>
        <mxCell id="DU0gbjUOqB8wbccmuK8--232" style="shape=connector;rounded=0;orthogonalLoop=1;jettySize=auto;html=1;exitX=0.5;exitY=1;exitDx=0;exitDy=0;entryX=0.5;entryY=0;entryDx=0;entryDy=0;labelBackgroundColor=default;strokeColor=#6c8ebf;fontFamily=Helvetica;fontSize=11;fontColor=default;endArrow=none;endFill=0;fillColor=#dae8fc;" edge="1" parent="1" source="DU0gbjUOqB8wbccmuK8--233" target="DU0gbjUOqB8wbccmuK8--49">
          <mxGeometry relative="1" as="geometry" />
        </mxCell>
        <mxCell id="DU0gbjUOqB8wbccmuK8--233" value="House_NO" style="ellipse;whiteSpace=wrap;html=1;align=center;fillColor=#dae8fc;strokeColor=#6c8ebf;" vertex="1" parent="1">
          <mxGeometry x="558.59" y="930" width="100" height="40" as="geometry" />
        </mxCell>
        <mxCell id="DU0gbjUOqB8wbccmuK8--234" style="edgeStyle=none;shape=connector;rounded=0;orthogonalLoop=1;jettySize=auto;html=1;exitX=0.5;exitY=0;exitDx=0;exitDy=0;entryX=0;entryY=0.5;entryDx=0;entryDy=0;labelBackgroundColor=default;strokeColor=#6c8ebf;fontFamily=Helvetica;fontSize=11;fontColor=default;endArrow=none;endFill=0;fillColor=#dae8fc;" edge="1" parent="1" source="DU0gbjUOqB8wbccmuK8--237" target="DU0gbjUOqB8wbccmuK8--261">
          <mxGeometry relative="1" as="geometry">
            <mxPoint x="-526.98" y="709.74" as="sourcePoint" />
            <mxPoint x="-443.84000000000015" y="656.0000000000002" as="targetPoint" />
          </mxGeometry>
        </mxCell>
        <mxCell id="DU0gbjUOqB8wbccmuK8--235" style="edgeStyle=none;shape=connector;rounded=0;orthogonalLoop=1;jettySize=auto;html=1;exitX=1;exitY=1;exitDx=0;exitDy=0;entryX=0;entryY=0;entryDx=0;entryDy=0;labelBackgroundColor=default;strokeColor=#6c8ebf;fontFamily=Helvetica;fontSize=11;fontColor=default;endArrow=none;endFill=0;fillColor=#dae8fc;" edge="1" parent="1" source="DU0gbjUOqB8wbccmuK8--236" target="DU0gbjUOqB8wbccmuK8--237">
          <mxGeometry relative="1" as="geometry" />
        </mxCell>
        <mxCell id="DU0gbjUOqB8wbccmuK8--236" value="Facebook" style="ellipse;whiteSpace=wrap;html=1;fillColor=#dae8fc;strokeColor=#6c8ebf;" vertex="1" parent="1">
          <mxGeometry x="-786.48" y="64" width="90" height="54" as="geometry" />
        </mxCell>
        <mxCell id="DU0gbjUOqB8wbccmuK8--237" value="Cc_Links" style="ellipse;whiteSpace=wrap;html=1;fillColor=#dae8fc;strokeColor=#6c8ebf;" vertex="1" parent="1">
          <mxGeometry x="-677.23" y="90" width="90" height="54" as="geometry" />
        </mxCell>
        <mxCell id="DU0gbjUOqB8wbccmuK8--238" style="edgeStyle=none;shape=connector;rounded=0;orthogonalLoop=1;jettySize=auto;html=1;exitX=0;exitY=0;exitDx=0;exitDy=0;entryX=0.554;entryY=0.984;entryDx=0;entryDy=0;entryPerimeter=0;labelBackgroundColor=default;strokeColor=#6c8ebf;fontFamily=Helvetica;fontSize=11;fontColor=default;endArrow=none;endFill=0;fillColor=#dae8fc;" edge="1" parent="1" source="DU0gbjUOqB8wbccmuK8--239" target="DU0gbjUOqB8wbccmuK8--237">
          <mxGeometry relative="1" as="geometry" />
        </mxCell>
        <mxCell id="DU0gbjUOqB8wbccmuK8--239" value="Youtube" style="ellipse;whiteSpace=wrap;html=1;fillColor=#dae8fc;strokeColor=#6c8ebf;" vertex="1" parent="1">
          <mxGeometry x="-619.36" y="168" width="90" height="54" as="geometry" />
        </mxCell>
        <mxCell id="DU0gbjUOqB8wbccmuK8--240" style="edgeStyle=none;shape=connector;rounded=0;orthogonalLoop=1;jettySize=auto;html=1;exitX=0.5;exitY=0;exitDx=0;exitDy=0;entryX=0;entryY=1;entryDx=0;entryDy=0;labelBackgroundColor=default;strokeColor=#6c8ebf;fontFamily=Helvetica;fontSize=11;fontColor=default;endArrow=none;endFill=0;fillColor=#dae8fc;" edge="1" parent="1" source="DU0gbjUOqB8wbccmuK8--241" target="DU0gbjUOqB8wbccmuK8--237">
          <mxGeometry relative="1" as="geometry" />
        </mxCell>
        <mxCell id="DU0gbjUOqB8wbccmuK8--241" value="Twitter" style="ellipse;whiteSpace=wrap;html=1;fillColor=#dae8fc;strokeColor=#6c8ebf;" vertex="1" parent="1">
          <mxGeometry x="-729.36" y="177" width="90" height="54" as="geometry" />
        </mxCell>
        <mxCell id="DU0gbjUOqB8wbccmuK8--242" style="edgeStyle=none;shape=connector;rounded=0;orthogonalLoop=1;jettySize=auto;html=1;exitX=1;exitY=0.5;exitDx=0;exitDy=0;entryX=0;entryY=0.5;entryDx=0;entryDy=0;labelBackgroundColor=default;strokeColor=#6c8ebf;fontFamily=Helvetica;fontSize=11;fontColor=default;endArrow=none;endFill=0;fillColor=#dae8fc;" edge="1" parent="1" source="DU0gbjUOqB8wbccmuK8--243" target="DU0gbjUOqB8wbccmuK8--237">
          <mxGeometry relative="1" as="geometry" />
        </mxCell>
        <mxCell id="DU0gbjUOqB8wbccmuK8--243" value="Instagram" style="ellipse;whiteSpace=wrap;html=1;fillColor=#dae8fc;strokeColor=#6c8ebf;" vertex="1" parent="1">
          <mxGeometry x="-796.48" y="128.5" width="90" height="54" as="geometry" />
        </mxCell>
        <mxCell id="DU0gbjUOqB8wbccmuK8--244" value="Cc_Phone" style="ellipse;shape=doubleEllipse;margin=3;whiteSpace=wrap;html=1;align=center;fillColor=#dae8fc;strokeColor=#6c8ebf;" vertex="1" parent="1">
          <mxGeometry x="-265" y="144" width="90" height="50" as="geometry" />
        </mxCell>
        <mxCell id="DU0gbjUOqB8wbccmuK8--245" value="Cc_Email" style="ellipse;whiteSpace=wrap;html=1;fillColor=#dae8fc;strokeColor=#6c8ebf;" vertex="1" parent="1">
          <mxGeometry x="-337.23" y="165" width="75" height="44" as="geometry" />
        </mxCell>
        <mxCell id="DU0gbjUOqB8wbccmuK8--246" value="Cc_Name" style="ellipse;whiteSpace=wrap;html=1;fillColor=#dae8fc;strokeColor=#6c8ebf;" vertex="1" parent="1">
          <mxGeometry x="-455" y="179" width="80" height="40" as="geometry" />
        </mxCell>
        <mxCell id="DU0gbjUOqB8wbccmuK8--247" value="Cc_Picture" style="ellipse;whiteSpace=wrap;html=1;fontFamily=Helvetica;fontSize=11;fillColor=#dae8fc;strokeColor=#6c8ebf;" vertex="1" parent="1">
          <mxGeometry x="-546.48" y="132" width="90" height="45" as="geometry" />
        </mxCell>
        <mxCell id="DU0gbjUOqB8wbccmuK8--248" value="Cc_Salary" style="ellipse;whiteSpace=wrap;html=1;fillColor=#dae8fc;strokeColor=#6c8ebf;" vertex="1" parent="1">
          <mxGeometry x="-587.23" y="10" width="90" height="54" as="geometry" />
        </mxCell>
        <mxCell id="DU0gbjUOqB8wbccmuK8--249" value="COUNTRY" style="ellipse;whiteSpace=wrap;html=1;fillColor=#dae8fc;strokeColor=#6c8ebf;" vertex="1" parent="1">
          <mxGeometry x="-494.47" y="-56" width="87.5" height="45" as="geometry" />
        </mxCell>
        <mxCell id="DU0gbjUOqB8wbccmuK8--250" style="shape=connector;rounded=0;orthogonalLoop=1;jettySize=auto;html=1;exitX=1;exitY=1;exitDx=0;exitDy=0;entryX=0;entryY=0;entryDx=0;entryDy=0;labelBackgroundColor=default;strokeColor=#6c8ebf;fontFamily=Helvetica;fontSize=11;fontColor=default;endArrow=none;endFill=0;fillColor=#dae8fc;" edge="1" parent="1" source="DU0gbjUOqB8wbccmuK8--251" target="DU0gbjUOqB8wbccmuK8--253">
          <mxGeometry relative="1" as="geometry" />
        </mxCell>
        <mxCell id="DU0gbjUOqB8wbccmuK8--251" value="ZIP CODE" style="ellipse;whiteSpace=wrap;html=1;align=center;fillColor=#dae8fc;strokeColor=#6c8ebf;" vertex="1" parent="1">
          <mxGeometry x="-445.53" y="-106" width="101.06" height="40" as="geometry" />
        </mxCell>
        <mxCell id="DU0gbjUOqB8wbccmuK8--252" style="shape=connector;rounded=0;orthogonalLoop=1;jettySize=auto;html=1;exitX=1;exitY=0;exitDx=0;exitDy=0;entryX=0;entryY=1;entryDx=0;entryDy=0;labelBackgroundColor=default;strokeColor=#6c8ebf;fontFamily=Helvetica;fontSize=11;fontColor=default;endArrow=none;endFill=0;fillColor=#dae8fc;" edge="1" parent="1" source="DU0gbjUOqB8wbccmuK8--253" target="DU0gbjUOqB8wbccmuK8--256">
          <mxGeometry relative="1" as="geometry" />
        </mxCell>
        <mxCell id="DU0gbjUOqB8wbccmuK8--253" value="Cc_Address" style="ellipse;whiteSpace=wrap;html=1;align=center;fillColor=#dae8fc;strokeColor=#6c8ebf;" vertex="1" parent="1">
          <mxGeometry x="-345" y="-46" width="100" height="40" as="geometry" />
        </mxCell>
        <mxCell id="DU0gbjUOqB8wbccmuK8--254" style="shape=connector;rounded=0;orthogonalLoop=1;jettySize=auto;html=1;exitX=0.5;exitY=1;exitDx=0;exitDy=0;entryX=0.5;entryY=0;entryDx=0;entryDy=0;labelBackgroundColor=default;strokeColor=#6c8ebf;fontFamily=Helvetica;fontSize=11;fontColor=default;endArrow=none;endFill=0;fillColor=#dae8fc;" edge="1" parent="1" source="DU0gbjUOqB8wbccmuK8--255" target="DU0gbjUOqB8wbccmuK8--253">
          <mxGeometry relative="1" as="geometry" />
        </mxCell>
        <mxCell id="DU0gbjUOqB8wbccmuK8--255" value="CITY" style="ellipse;whiteSpace=wrap;html=1;align=center;fillColor=#dae8fc;strokeColor=#6c8ebf;" vertex="1" parent="1">
          <mxGeometry x="-335" y="-126" width="100" height="40" as="geometry" />
        </mxCell>
        <mxCell id="DU0gbjUOqB8wbccmuK8--256" value="HOUSE NO" style="ellipse;whiteSpace=wrap;html=1;align=center;fillColor=#dae8fc;strokeColor=#6c8ebf;" vertex="1" parent="1">
          <mxGeometry x="-234.99999999999997" y="-96" width="100" height="40" as="geometry" />
        </mxCell>
        <mxCell id="DU0gbjUOqB8wbccmuK8--257" style="shape=connector;rounded=0;orthogonalLoop=1;jettySize=auto;html=1;exitX=0;exitY=0.5;exitDx=0;exitDy=0;entryX=1;entryY=1;entryDx=0;entryDy=0;labelBackgroundColor=default;strokeColor=#6c8ebf;fontFamily=Helvetica;fontSize=11;fontColor=default;endArrow=none;endFill=0;fillColor=#dae8fc;" edge="1" parent="1" source="DU0gbjUOqB8wbccmuK8--258" target="DU0gbjUOqB8wbccmuK8--253">
          <mxGeometry relative="1" as="geometry" />
        </mxCell>
        <mxCell id="DU0gbjUOqB8wbccmuK8--258" value="ROAD NO" style="ellipse;whiteSpace=wrap;html=1;align=center;fillColor=#dae8fc;strokeColor=#6c8ebf;" vertex="1" parent="1">
          <mxGeometry x="-234.99999999999997" y="-21" width="100" height="40" as="geometry" />
        </mxCell>
        <mxCell id="DU0gbjUOqB8wbccmuK8--259" style="shape=connector;rounded=0;orthogonalLoop=1;jettySize=auto;html=1;exitX=0;exitY=0.5;exitDx=0;exitDy=0;entryX=1;entryY=0.5;entryDx=0;entryDy=0;labelBackgroundColor=default;strokeColor=#6c8ebf;fontFamily=Helvetica;fontSize=11;fontColor=default;endArrow=none;endFill=0;fillColor=#dae8fc;" edge="1" parent="1" source="DU0gbjUOqB8wbccmuK8--260" target="DU0gbjUOqB8wbccmuK8--261">
          <mxGeometry relative="1" as="geometry" />
        </mxCell>
        <mxCell id="DU0gbjUOqB8wbccmuK8--260" value="Cc_Id" style="ellipse;whiteSpace=wrap;html=1;fillColor=#dae8fc;strokeColor=#6c8ebf;" vertex="1" parent="1">
          <mxGeometry x="-276.48" y="32" width="80" height="40" as="geometry" />
        </mxCell>
        <mxCell id="DU0gbjUOqB8wbccmuK8--261" value="Content Creator/VFX/GFX" style="rounded=0;whiteSpace=wrap;html=1;fillColor=#ffe6cc;strokeColor=#d79b00;" vertex="1" parent="1">
          <mxGeometry x="-425" y="77" width="120" height="40" as="geometry" />
        </mxCell>
        <mxCell id="DU0gbjUOqB8wbccmuK8--262" style="edgeStyle=none;shape=connector;rounded=0;orthogonalLoop=1;jettySize=auto;html=1;exitX=1;exitY=1;exitDx=0;exitDy=0;entryX=0;entryY=0;entryDx=0;entryDy=0;labelBackgroundColor=default;strokeColor=#6c8ebf;fontFamily=Helvetica;fontSize=11;fontColor=default;endArrow=none;endFill=0;fillColor=#dae8fc;" edge="1" parent="1" source="DU0gbjUOqB8wbccmuK8--261" target="DU0gbjUOqB8wbccmuK8--244">
          <mxGeometry relative="1" as="geometry" />
        </mxCell>
        <mxCell id="DU0gbjUOqB8wbccmuK8--263" style="edgeStyle=none;shape=connector;rounded=0;orthogonalLoop=1;jettySize=auto;html=1;exitX=0.75;exitY=1;exitDx=0;exitDy=0;labelBackgroundColor=default;strokeColor=#6c8ebf;fontFamily=Helvetica;fontSize=11;fontColor=default;endArrow=none;endFill=0;fillColor=#dae8fc;" edge="1" parent="1" source="DU0gbjUOqB8wbccmuK8--261" target="DU0gbjUOqB8wbccmuK8--245">
          <mxGeometry relative="1" as="geometry" />
        </mxCell>
        <mxCell id="DU0gbjUOqB8wbccmuK8--264" style="edgeStyle=none;shape=connector;rounded=0;orthogonalLoop=1;jettySize=auto;html=1;exitX=0.25;exitY=1;exitDx=0;exitDy=0;entryX=0.398;entryY=0.085;entryDx=0;entryDy=0;entryPerimeter=0;labelBackgroundColor=default;strokeColor=#6c8ebf;fontFamily=Helvetica;fontSize=11;fontColor=default;endArrow=none;endFill=0;fillColor=#dae8fc;" edge="1" parent="1" source="DU0gbjUOqB8wbccmuK8--261" target="DU0gbjUOqB8wbccmuK8--246">
          <mxGeometry relative="1" as="geometry" />
        </mxCell>
        <mxCell id="DU0gbjUOqB8wbccmuK8--265" style="edgeStyle=none;shape=connector;rounded=0;orthogonalLoop=1;jettySize=auto;html=1;exitX=1;exitY=0;exitDx=0;exitDy=0;entryX=0;entryY=1;entryDx=0;entryDy=0;labelBackgroundColor=default;strokeColor=#6c8ebf;fontFamily=Helvetica;fontSize=11;fontColor=default;endArrow=none;endFill=0;fillColor=#dae8fc;" edge="1" parent="1" source="DU0gbjUOqB8wbccmuK8--247" target="DU0gbjUOqB8wbccmuK8--261">
          <mxGeometry relative="1" as="geometry" />
        </mxCell>
        <mxCell id="DU0gbjUOqB8wbccmuK8--266" style="edgeStyle=none;shape=connector;rounded=0;orthogonalLoop=1;jettySize=auto;html=1;exitX=0.697;exitY=0.929;exitDx=0;exitDy=0;entryX=0;entryY=0;entryDx=0;entryDy=0;labelBackgroundColor=default;strokeColor=#6c8ebf;fontFamily=Helvetica;fontSize=11;fontColor=default;endArrow=none;endFill=0;exitPerimeter=0;fillColor=#dae8fc;" edge="1" parent="1" source="DU0gbjUOqB8wbccmuK8--248" target="DU0gbjUOqB8wbccmuK8--261">
          <mxGeometry relative="1" as="geometry">
            <mxPoint x="-544.4700000000004" y="3.518000000000029" as="sourcePoint" />
          </mxGeometry>
        </mxCell>
        <mxCell id="DU0gbjUOqB8wbccmuK8--267" style="shape=connector;rounded=0;orthogonalLoop=1;jettySize=auto;html=1;exitX=0;exitY=0.5;exitDx=0;exitDy=0;entryX=0.994;entryY=0.689;entryDx=0;entryDy=0;entryPerimeter=0;labelBackgroundColor=default;strokeColor=#6c8ebf;fontFamily=Helvetica;fontSize=11;fontColor=default;endArrow=none;endFill=0;fillColor=#dae8fc;" edge="1" parent="1" source="DU0gbjUOqB8wbccmuK8--253" target="DU0gbjUOqB8wbccmuK8--249">
          <mxGeometry relative="1" as="geometry" />
        </mxCell>
        <mxCell id="DU0gbjUOqB8wbccmuK8--268" style="edgeStyle=none;shape=connector;rounded=0;orthogonalLoop=1;jettySize=auto;html=1;exitX=0.75;exitY=0;exitDx=0;exitDy=0;entryX=0.5;entryY=1;entryDx=0;entryDy=0;labelBackgroundColor=default;strokeColor=#6c8ebf;fontFamily=Helvetica;fontSize=11;fontColor=default;endArrow=none;endFill=0;fillColor=#dae8fc;" edge="1" parent="1" source="DU0gbjUOqB8wbccmuK8--261" target="DU0gbjUOqB8wbccmuK8--253">
          <mxGeometry relative="1" as="geometry" />
        </mxCell>
      </root>
    </mxGraphModel>
  </diagram>
</mxfile>
